<svg width="851" height="315" viewBox="0 0 851 315" fill="none" xmlns="http://www.w3.org/2000/svg">
<rect width="851" height="315" fill="#05192D"/>
<mask id="mask0_7908_116529" style="mask-type:alpha" maskUnits="userSpaceOnUse" x="0" y="0" width="851" height="315">
<rect width="851" height="315" fill="#05192D"/>
</mask>
<g mask="url(#mask0_7908_116529)">
<path d="M-1.01978 187.996V187.996C17.9092 187.996 33.2542 172.651 33.2542 153.722L33.2542 -2.74617L-1.01979 -2.74616" stroke="url(#paint0_linear_7908_116529)" stroke-width="1.22872"/>
<rect x="-4" y="-3.00195" width="161.297" height="64.0612" stroke="url(#paint1_linear_7908_116529)" stroke-width="1.22872"/>
<circle cx="157.869" cy="61.63" r="44.0421" stroke="url(#paint2_linear_7908_116529)" stroke-width="1.22872"/>
<path d="M283 20.9451C283 42.6408 300.588 60.2285 322.283 60.2285L538.762 60.2286L538.762 -3.39394L283 -3.39399L283 20.9451Z" stroke="url(#paint3_linear_7908_116529)" stroke-width="1.22761"/>
<rect width="114.318" height="119.61" rx="57.1589" transform="matrix(1 9.20383e-08 8.30387e-08 -1 481.682 60.2285)" stroke="url(#paint4_linear_7908_116529)" stroke-width="1.22761"/>
<path d="M462.03 288.935C462.03 272.909 449.038 259.918 433.013 259.918L115 259.918L115 336.171L462.03 336.171L462.03 288.935Z" stroke="url(#paint5_linear_7908_116529)" stroke-width="1.20904"/>
<path d="M239.729 222.523C239.729 198.485 220.242 178.998 196.204 178.998L115 178.998L115 286.524L239.729 286.524L239.729 222.523Z" stroke="url(#paint6_linear_7908_116529)" stroke-width="1.20904"/>
</g>
<path d="M447.513 136.558C452.648 136.558 456.014 133.049 456.67 129.169H452.733C452.02 131.423 449.909 132.764 447.513 132.764C443.833 132.764 440.923 129.797 440.923 126.117C440.923 122.437 443.833 119.47 447.513 119.47C449.795 119.47 452.077 121.011 452.705 123.15H456.642C456.014 119.641 452.733 115.676 447.513 115.676C441.75 115.676 437.129 120.354 437.129 126.117C437.129 131.879 441.75 136.558 447.513 136.558ZM472.868 130.082C472.897 129.825 472.925 129.398 472.925 128.97C472.925 124.862 469.901 121.496 466.079 121.496C462.028 121.496 458.804 124.776 458.804 129.027C458.804 133.363 461.942 136.558 466.193 136.558C470.9 136.558 472.497 132.849 472.668 131.566H468.874C468.589 132.364 467.676 133.22 466.193 133.22C463.996 133.22 462.969 131.822 462.741 130.082H472.868ZM466.079 124.833C467.79 124.833 468.76 125.974 469.074 127.543H462.855C463.197 125.974 464.281 124.833 466.079 124.833ZM483.52 121.496C481.837 121.496 480.411 122.18 479.527 123.635V121.667H475.732V136.387H479.527V129.084C479.527 126.374 480.924 125.204 483.121 125.204C484.062 125.204 484.804 125.347 485.146 125.404V121.61C484.804 121.581 484.262 121.496 483.52 121.496ZM494.078 133.078C493.023 133.078 492.281 132.65 492.281 131.509V124.976H495.762V121.667H492.281V117.473H488.487V121.667H486.091V124.976H488.487V131.594C488.487 135.046 490.313 136.558 493.223 136.558C494.05 136.558 494.963 136.387 495.762 136.159V132.792C495.248 132.935 494.649 133.078 494.078 133.078ZM500.515 120.041C501.884 120.041 503.111 118.9 503.111 117.473C503.111 116.075 501.941 114.963 500.515 114.963C499.089 114.963 497.976 116.075 497.976 117.473C497.976 118.9 499.089 120.041 500.515 120.041ZM502.398 121.667H498.604V136.387H502.398V121.667ZM511.313 121.667V120.754C511.313 119.556 512.112 119.156 513.111 119.156C513.767 119.156 514.394 119.327 514.565 119.385V116.047C514.252 115.933 513.196 115.676 511.912 115.676C509.088 115.676 507.519 117.787 507.519 120.725V121.667H505.151V124.976H507.519V136.387H511.313V124.976H514.794V121.667H511.313ZM519.208 120.041C520.577 120.041 521.804 118.9 521.804 117.473C521.804 116.075 520.634 114.963 519.208 114.963C517.782 114.963 516.669 116.075 516.669 117.473C516.669 118.9 517.782 120.041 519.208 120.041ZM521.091 121.667H517.297V136.387H521.091V121.667ZM538.057 130.082C538.086 129.825 538.114 129.398 538.114 128.97C538.114 124.862 535.09 121.496 531.268 121.496C527.217 121.496 523.993 124.776 523.993 129.027C523.993 133.363 527.131 136.558 531.382 136.558C536.089 136.558 537.686 132.849 537.857 131.566H534.063C533.778 132.364 532.865 133.22 531.382 133.22C529.185 133.22 528.158 131.822 527.93 130.082H538.057ZM531.268 124.833C532.979 124.833 533.949 125.974 534.263 127.543H528.044C528.386 125.974 529.47 124.833 531.268 124.833ZM551.042 115.847V123.664C550.1 122.408 548.531 121.496 546.791 121.496C543.34 121.496 540.43 124.605 540.43 129.027C540.43 133.448 543.34 136.558 546.791 136.558C548.531 136.558 550.043 135.93 551.042 134.39V136.387H554.836V115.847H551.042ZM547.647 132.792C545.736 132.792 544.195 131.109 544.195 129.027C544.195 126.944 545.736 125.261 547.647 125.261C549.587 125.261 551.042 126.944 551.042 129.027C551.042 131.109 549.587 132.792 547.647 132.792ZM577.006 123.55C575.922 122.294 574.41 121.496 572.698 121.496C569.19 121.496 566.394 124.862 566.394 129.027C566.394 133.192 569.19 136.558 572.698 136.558C574.41 136.558 575.893 135.759 577.006 134.504V136.387H580.8V121.667H577.006V123.55ZM573.611 132.792C571.7 132.792 570.16 131.109 570.16 129.027C570.16 126.944 571.7 125.29 573.611 125.29C575.523 125.29 577.006 126.944 577.006 129.027C577.006 131.109 575.523 132.792 573.611 132.792ZM583.66 131.423C583.689 133.819 585.686 136.558 589.451 136.558C592.675 136.558 595.1 134.789 595.157 131.765C595.214 129.683 593.759 128.057 590.878 127.401L588.881 126.944C588.139 126.773 587.768 126.402 587.768 125.803C587.768 125.061 588.424 124.519 589.48 124.519C590.535 124.519 591.305 125.261 591.334 126.317H594.7C594.7 123.949 592.675 121.496 589.508 121.496C586.313 121.496 584.031 123.293 584.031 125.86C584.031 127.971 585.144 129.54 587.911 130.225L589.708 130.653C590.849 130.938 591.42 131.28 591.42 132.022C591.42 132.821 590.621 133.306 589.622 133.306C588.453 133.306 587.483 132.621 587.454 131.423H583.66ZM616.259 123.55C615.175 122.294 613.663 121.496 611.951 121.496C608.442 121.496 605.647 124.862 605.647 129.027C605.647 133.192 608.442 136.558 611.951 136.558C613.663 136.558 615.146 135.759 616.259 134.504V136.387H620.053V121.667H616.259V123.55ZM612.864 132.792C610.953 132.792 609.412 131.109 609.412 129.027C609.412 126.944 610.953 125.29 612.864 125.29C614.775 125.29 616.259 126.944 616.259 129.027C616.259 131.109 614.775 132.792 612.864 132.792ZM292.038 151.847V172.387H300.054C305.674 172.387 310.324 167.908 310.324 162.117C310.324 156.326 305.645 151.847 300.054 151.847H292.038ZM295.832 168.593V155.641H300.054C303.62 155.641 306.53 158.551 306.53 162.117C306.53 165.683 303.62 168.593 300.054 168.593H295.832ZM322.936 159.55C321.852 158.294 320.34 157.496 318.629 157.496C315.12 157.496 312.324 160.862 312.324 165.027C312.324 169.192 315.12 172.558 318.629 172.558C320.34 172.558 321.824 171.759 322.936 170.504V172.387H326.73V157.667H322.936V159.55ZM319.541 168.792C317.63 168.792 316.09 167.109 316.09 165.027C316.09 162.944 317.63 161.29 319.541 161.29C321.453 161.29 322.936 162.944 322.936 165.027C322.936 167.109 321.453 168.792 319.541 168.792ZM337.207 169.078C336.152 169.078 335.41 168.65 335.41 167.509V160.976H338.89V157.667H335.41V153.473H331.616V157.667H329.219V160.976H331.616V167.594C331.616 171.046 333.441 172.558 336.351 172.558C337.179 172.558 338.091 172.387 338.89 172.159V168.792C338.377 168.935 337.778 169.078 337.207 169.078ZM351.213 159.55C350.129 158.294 348.617 157.496 346.905 157.496C343.396 157.496 340.6 160.862 340.6 165.027C340.6 169.192 343.396 172.558 346.905 172.558C348.617 172.558 350.1 171.759 351.213 170.504V172.387H355.007V157.667H351.213V159.55ZM347.818 168.792C345.906 168.792 344.366 167.109 344.366 165.027C344.366 162.944 345.906 161.29 347.818 161.29C349.729 161.29 351.213 162.944 351.213 165.027C351.213 167.109 349.729 168.792 347.818 168.792ZM366.481 165.198C366.51 169.762 369.961 172.558 374.098 172.558C378.177 172.558 381.058 170.019 381.058 166.367C381.058 163.201 379.147 161.261 375.296 160.291L372.957 159.692C371.416 159.293 370.96 158.437 370.96 157.61C370.96 156.497 371.958 155.299 373.727 155.299C375.467 155.299 376.665 156.554 376.665 158.266H380.402C380.402 154.728 377.892 151.676 373.898 151.676C370.247 151.676 367.052 154.101 367.052 157.581C367.052 160.348 369.02 162.516 372.358 163.344L374.754 163.943C376.266 164.314 377.15 165.226 377.15 166.425C377.15 167.651 376.152 168.906 374.098 168.906C371.844 168.906 370.332 167.566 370.304 165.198H366.481ZM397.121 163.144C396.95 160.833 394.754 157.496 390.332 157.496C386.281 157.496 383.029 160.862 383.029 165.027C383.029 169.192 386.281 172.558 390.332 172.558C394.326 172.558 396.95 169.078 397.064 166.91H393.299C393.042 168.051 391.787 168.963 390.332 168.963C388.221 168.963 386.795 167.081 386.795 165.027C386.795 162.973 388.107 161.09 390.332 161.09C391.673 161.09 392.899 161.889 393.27 163.144H397.121ZM401.951 156.041C403.321 156.041 404.547 154.9 404.547 153.473C404.547 152.075 403.378 150.963 401.951 150.963C400.525 150.963 399.412 152.075 399.412 153.473C399.412 154.9 400.525 156.041 401.951 156.041ZM403.834 157.667H400.04V172.387H403.834V157.667ZM420.801 166.082C420.829 165.825 420.858 165.398 420.858 164.97C420.858 160.862 417.834 157.496 414.011 157.496C409.96 157.496 406.737 160.776 406.737 165.027C406.737 169.363 409.875 172.558 414.125 172.558C418.832 172.558 420.43 168.849 420.601 167.566H416.807C416.521 168.364 415.609 169.22 414.125 169.22C411.929 169.22 410.902 167.822 410.673 166.082H420.801ZM414.011 160.833C415.723 160.833 416.693 161.974 417.006 163.543H410.787C411.13 161.974 412.214 160.833 414.011 160.833ZM431.424 157.496C429.741 157.496 428.201 158.294 427.345 159.607V157.667H423.665V172.387H427.459V164.199C427.459 162.459 428.686 161.29 430.255 161.29C431.795 161.29 433.022 162.431 433.022 164.171V172.387H436.816V163.714C436.816 159.492 434.705 157.496 431.424 157.496ZM446.552 169.078C445.496 169.078 444.755 168.65 444.755 167.509V160.976H448.235V157.667H444.755V153.473H440.96V157.667H438.564V160.976H440.96V167.594C440.96 171.046 442.786 172.558 445.696 172.558C446.523 172.558 447.436 172.387 448.235 172.159V168.792C447.721 168.935 447.122 169.078 446.552 169.078ZM452.988 156.041C454.358 156.041 455.584 154.9 455.584 153.473C455.584 152.075 454.415 150.963 452.988 150.963C451.562 150.963 450.449 152.075 450.449 153.473C450.449 154.9 451.562 156.041 452.988 156.041ZM454.871 157.667H451.077V172.387H454.871V157.667ZM457.767 167.423C457.796 169.819 459.793 172.558 463.558 172.558C466.782 172.558 469.207 170.789 469.264 167.765C469.321 165.683 467.866 164.057 464.985 163.401L462.988 162.944C462.246 162.773 461.875 162.402 461.875 161.803C461.875 161.061 462.531 160.519 463.587 160.519C464.642 160.519 465.413 161.261 465.441 162.317H468.807C468.807 159.949 466.782 157.496 463.616 157.496C460.42 157.496 458.138 159.293 458.138 161.86C458.138 163.971 459.251 165.54 462.018 166.225L463.815 166.653C464.956 166.938 465.527 167.28 465.527 168.022C465.527 168.821 464.728 169.306 463.73 169.306C462.56 169.306 461.59 168.621 461.562 167.423H457.767ZM478.283 169.078C477.227 169.078 476.485 168.65 476.485 167.509V160.976H479.966V157.667H476.485V153.473H472.691V157.667H470.295V160.976H472.691V167.594C472.691 171.046 474.517 172.558 477.427 172.558C478.254 172.558 479.167 172.387 479.966 172.159V168.792C479.452 168.935 478.853 169.078 478.283 169.078ZM509.65 172.387L501.691 151.847H497.555L489.567 172.387H493.675L495.701 167.138H503.517L505.542 172.387H509.65ZM497.783 161.775C498.496 160.006 499.038 158.494 499.58 156.839H499.609C500.208 158.494 500.75 160.006 501.434 161.775L502.148 163.629H497.07L497.783 161.775ZM510.838 167.423C510.867 169.819 512.863 172.558 516.629 172.558C519.853 172.558 522.277 170.789 522.334 167.765C522.391 165.683 520.937 164.057 518.055 163.401L516.058 162.944C515.317 162.773 514.946 162.402 514.946 161.803C514.946 161.061 515.602 160.519 516.658 160.519C517.713 160.519 518.483 161.261 518.512 162.317H521.878C521.878 159.949 519.853 157.496 516.686 157.496C513.491 157.496 511.209 159.293 511.209 161.86C511.209 163.971 512.321 165.54 515.089 166.225L516.886 166.653C518.027 166.938 518.597 167.28 518.597 168.022C518.597 168.821 517.799 169.306 516.8 169.306C515.631 169.306 514.661 168.621 514.632 167.423H510.838ZM524.21 167.423C524.239 169.819 526.235 172.558 530.001 172.558C533.225 172.558 535.649 170.789 535.707 167.765C535.764 165.683 534.309 164.057 531.427 163.401L529.431 162.944C528.689 162.773 528.318 162.402 528.318 161.803C528.318 161.061 528.974 160.519 530.03 160.519C531.085 160.519 531.855 161.261 531.884 162.317H535.25C535.25 159.949 533.225 157.496 530.058 157.496C526.863 157.496 524.581 159.293 524.581 161.86C524.581 163.971 525.693 165.54 528.461 166.225L530.258 166.653C531.399 166.938 531.969 167.28 531.969 168.022C531.969 168.821 531.171 169.306 530.172 169.306C529.003 169.306 528.033 168.621 528.004 167.423H524.21ZM545.142 172.558H545.17C549.193 172.558 552.445 169.163 552.445 165.027C552.445 160.89 549.193 157.496 545.17 157.496H545.142C541.091 157.496 537.839 160.862 537.839 165.027C537.839 169.192 541.091 172.558 545.142 172.558ZM545.142 168.792C543.145 168.792 541.604 167.081 541.604 165.027C541.604 162.973 543.145 161.29 545.142 161.261H545.17C547.11 161.261 548.651 162.973 548.651 165.027C548.651 167.081 547.139 168.792 545.17 168.792H545.142ZM568.841 163.144C568.67 160.833 566.474 157.496 562.052 157.496C558.001 157.496 554.749 160.862 554.749 165.027C554.749 169.192 558.001 172.558 562.052 172.558C566.046 172.558 568.67 169.078 568.784 166.91H565.019C564.762 168.051 563.507 168.963 562.052 168.963C559.941 168.963 558.515 167.081 558.515 165.027C558.515 162.973 559.827 161.09 562.052 161.09C563.393 161.09 564.619 161.889 564.99 163.144H568.841ZM573.671 156.041C575.041 156.041 576.267 154.9 576.267 153.473C576.267 152.075 575.098 150.963 573.671 150.963C572.245 150.963 571.133 152.075 571.133 153.473C571.133 154.9 572.245 156.041 573.671 156.041ZM575.554 157.667H571.76V172.387H575.554V157.667ZM589.069 159.55C587.985 158.294 586.473 157.496 584.761 157.496C581.252 157.496 578.457 160.862 578.457 165.027C578.457 169.192 581.252 172.558 584.761 172.558C586.473 172.558 587.956 171.759 589.069 170.504V172.387H592.863V157.667H589.069V159.55ZM585.674 168.792C583.763 168.792 582.222 167.109 582.222 165.027C582.222 162.944 583.763 161.29 585.674 161.29C587.585 161.29 589.069 162.944 589.069 165.027C589.069 167.109 587.585 168.792 585.674 168.792ZM603.34 169.078C602.284 169.078 601.542 168.65 601.542 167.509V160.976H605.023V157.667H601.542V153.473H597.748V157.667H595.352V160.976H597.748V167.594C597.748 171.046 599.574 172.558 602.484 172.558C603.311 172.558 604.224 172.387 605.023 172.159V168.792C604.509 168.935 603.91 169.078 603.34 169.078ZM620.797 166.082C620.826 165.825 620.854 165.398 620.854 164.97C620.854 160.862 617.83 157.496 614.008 157.496C609.957 157.496 606.733 160.776 606.733 165.027C606.733 169.363 609.871 172.558 614.122 172.558C618.829 172.558 620.426 168.849 620.597 167.566H616.803C616.518 168.364 615.605 169.22 614.122 169.22C611.925 169.22 610.898 167.822 610.67 166.082H620.797ZM614.008 160.833C615.719 160.833 616.689 161.974 617.003 163.543H610.784C611.126 161.974 612.21 160.833 614.008 160.833Z" fill="white"/>
<path d="M516.916 195.74C517.622 195.348 518.131 194.59 518.131 193.728C518.131 192.343 516.89 191.206 515.44 191.206H511.69V200.613H515.819C517.23 200.613 518.497 199.477 518.497 198.092C518.51 197.099 517.935 196.171 516.916 195.753V195.74ZM515.44 192.565C516.184 192.565 516.772 193.153 516.772 193.884C516.772 194.551 516.224 195.139 515.492 195.152H513.049V192.565H515.44ZM513.049 199.254V196.524H515.819C516.55 196.524 517.138 197.164 517.138 197.896C517.138 198.64 516.55 199.254 515.819 199.254H513.049ZM524.295 193.871V197.791C524.295 198.627 523.615 199.346 522.753 199.346C521.904 199.346 521.224 198.64 521.224 197.791V193.871H519.865V197.948C519.865 199.477 520.78 200.692 522.27 200.692C523.106 200.692 523.837 200.247 524.295 199.699V200.535C524.295 201.75 523.615 202.547 522.531 202.547C521.499 202.547 520.924 202.011 520.819 201.175H519.395C519.473 202.521 520.545 203.827 522.505 203.827C524.334 203.827 525.654 202.456 525.654 200.483V193.871H524.295Z" fill="white"/>
<g clip-path="url(#clip0_7908_116529)">
<path fill-rule="evenodd" clip-rule="evenodd" d="M555.995 199.381C554.403 199.381 553.113 198.086 553.113 196.488C553.113 194.89 554.403 193.594 555.995 193.594C557.586 193.594 558.876 194.89 558.876 196.488C558.876 197.255 558.573 197.991 558.032 198.533C557.492 199.076 556.759 199.381 555.995 199.381ZM558.881 188.902V193.401C557.208 191.823 554.586 191.878 552.98 193.524C551.375 195.17 551.375 197.804 552.98 199.45C554.586 201.097 557.208 201.151 558.881 199.574V200.506H560.213V188.902H558.881ZM595.962 199.381C594.371 199.381 593.081 198.086 593.081 196.488C593.081 194.89 594.371 193.594 595.962 193.594C597.554 193.594 598.844 194.89 598.844 196.488C598.844 197.255 598.54 197.991 598 198.533C597.459 199.076 596.726 199.381 595.962 199.381ZM600.179 196.488V192.297H598.848V193.401C597.175 191.823 594.553 191.878 592.947 193.524C591.341 195.17 591.341 197.804 592.947 199.45C594.553 201.097 597.175 201.151 598.848 199.574V200.506H600.18V196.488H600.179ZM610.799 192.609C610.918 192.412 611.131 192.292 611.36 192.293H611.616C612.161 192.293 612.602 192.735 612.602 193.282V200.506H611.242V194.386C610.616 195.402 608.371 199.086 607.699 200.191C607.579 200.387 607.367 200.506 607.138 200.506H606.861C606.498 200.506 606.204 200.211 606.204 199.847V194.371C605.47 195.561 603.215 199.261 602.505 200.444L602.468 200.506H601.165V192.295H602.523V192.312L602.492 197.976L605.75 192.61C605.869 192.414 606.082 192.294 606.311 192.294H606.569C607.112 192.294 607.553 192.736 607.555 193.281C607.555 194.791 607.562 197.54 607.562 197.94L610.799 192.609ZM591.61 198.981C590.526 200.477 588.599 201.093 586.853 200.501C585.107 199.909 583.946 198.247 583.987 196.397C584.028 194.547 585.26 192.937 587.031 192.423C588.801 191.909 590.699 192.61 591.717 194.153L590.44 194.819C589.751 193.844 588.524 193.414 587.38 193.745C586.236 194.077 585.426 195.098 585.361 196.291C585.295 197.485 585.989 198.589 587.089 199.045C588.189 199.501 589.457 199.208 590.248 198.315L591.61 198.981ZM617.692 199.387C616.168 199.387 614.909 198.195 614.818 196.668V196.322C614.912 194.749 616.241 193.541 617.809 193.604C619.377 193.667 620.606 194.978 620.575 196.553C620.543 198.128 619.263 199.389 617.694 199.388L617.692 199.387ZM617.694 192.261C616.626 192.259 615.597 192.666 614.818 193.399V192.297H613.486V203.858H614.818V199.59C616.2 200.885 618.272 201.098 619.886 200.111C621.501 199.124 622.265 197.178 621.754 195.351C621.244 193.523 619.584 192.26 617.694 192.26V192.261ZM572.55 193.579V198.628C572.55 198.928 572.792 199.17 573.09 199.17H574.641V200.506H573.091C572.058 200.505 571.222 199.665 571.221 198.628L571.216 193.579H569.78V192.278H571.216V190.033H572.549V192.283H574.913V193.579H572.55ZM579.005 199.38C577.414 199.38 576.124 198.085 576.124 196.487C576.124 194.889 577.414 193.593 579.005 193.593C580.597 193.593 581.887 194.889 581.887 196.487C581.887 197.254 581.583 197.99 581.043 198.533C580.502 199.075 579.77 199.38 579.005 199.38ZM581.891 192.297V193.401C580.218 191.823 577.596 191.878 575.99 193.524C574.384 195.17 574.384 197.804 575.99 199.45C577.596 201.097 580.218 201.151 581.891 199.574V200.506H583.223V192.295L581.891 192.297ZM564.964 199.381C563.372 199.381 562.082 198.086 562.082 196.488C562.082 194.89 563.372 193.594 564.964 193.594C566.555 193.594 567.845 194.89 567.845 196.488C567.846 197.255 567.542 197.991 567.002 198.534C566.461 199.076 565.728 199.381 564.964 199.381ZM567.849 192.297V193.401C566.177 191.823 563.555 191.878 561.949 193.524C560.343 195.17 560.343 197.804 561.949 199.45C563.555 201.097 566.177 201.151 567.849 199.574V200.506H569.18V192.295L567.849 192.297Z" fill="white"/>
<path fill-rule="evenodd" clip-rule="evenodd" d="M540.379 189.939V194.173L535.905 196.735V187.361L540.379 189.939ZM541.826 198.834V195.018L547.817 191.585L546.36 190.747L541.826 193.344V189.515C541.825 189.255 541.687 189.015 541.463 188.884L536.005 185.743C535.99 185.734 535.976 185.726 535.961 185.719C535.637 185.561 535.254 185.581 534.949 185.773C534.643 185.966 534.458 186.303 534.459 186.665V197.429C534.457 197.791 534.643 198.129 534.948 198.321C535.254 198.514 535.637 198.535 535.962 198.377L536.003 198.355L540.375 195.849V199.264C540.376 199.524 540.515 199.765 540.74 199.895L546.351 203.092L547.809 202.253L541.826 198.834Z" fill="#03EF62"/>
</g>
<g filter="url(#filter0_dd_7908_116529)">
<path d="M655.95 145.299C655.95 109.76 684.76 80.95 720.3 80.95C755.839 80.95 784.649 109.76 784.649 145.299V227.199C784.649 230.43 782.03 233.049 778.799 233.049H661.8C658.569 233.049 655.95 230.43 655.95 227.199V145.299Z" fill="#05192D" stroke="#FCCE0D" stroke-width="3.89997"/>
<circle cx="720.299" cy="143.348" r="46.7996" stroke="url(#paint7_linear_7908_116529)" stroke-width="1.94998"/>
<circle cx="720.3" cy="137.499" r="27.2998" fill="url(#paint8_linear_7908_116529)"/>
<g filter="url(#filter1_d_7908_116529)">
<circle cx="720.3" cy="137.5" r="19.4998" fill="white"/>
</g>
<path fill-rule="evenodd" clip-rule="evenodd" d="M720.299 127.1C724.248 127.1 727.449 130.301 727.449 134.25C727.449 136.47 726.437 138.454 724.849 139.765V146.788C724.849 147.691 723.96 148.303 723.134 148.02L722.997 147.965L720.297 146.695L717.603 147.964C716.786 148.349 715.854 147.805 715.758 146.936L715.749 146.788V139.765C714.162 138.454 713.15 136.47 713.15 134.25C713.15 130.301 716.351 127.1 720.299 127.1ZM718.349 141.13V144.738L719.742 144.083C720.043 143.942 720.384 143.922 720.696 144.022L720.849 144.083L722.249 144.74V141.13C721.63 141.306 720.975 141.399 720.299 141.399C719.623 141.399 718.969 141.306 718.349 141.13ZM720.299 129.699C717.787 129.699 715.749 131.736 715.749 134.249C715.749 136.762 717.787 138.799 720.299 138.799C722.812 138.799 724.849 136.762 724.849 134.249C724.849 131.736 722.812 129.699 720.299 129.699Z" fill="#05192D"/>
<path d="M654 211.6H786.599V227.199C786.599 231.507 783.107 234.999 778.799 234.999H661.8C657.492 234.999 654 231.507 654 227.199V211.6Z" fill="#FCCE0D"/>
<path d="M689.765 226.549L686.5 218.125H684.804L681.528 226.549H683.213L684.043 224.396H687.249L688.08 226.549H689.765ZM684.897 222.196C685.19 221.471 685.412 220.851 685.635 220.172H685.646C685.892 220.851 686.114 221.471 686.395 222.196L686.688 222.957H684.605L684.897 222.196ZM691.803 223.6C691.814 225.472 693.23 226.619 694.927 226.619C696.6 226.619 697.781 225.578 697.781 224.08C697.781 222.781 696.997 221.986 695.418 221.588L694.459 221.342C693.827 221.179 693.64 220.828 693.64 220.488C693.64 220.032 694.049 219.541 694.775 219.541C695.488 219.541 695.98 220.055 695.98 220.757H697.512C697.512 219.307 696.483 218.055 694.845 218.055C693.347 218.055 692.037 219.049 692.037 220.477C692.037 221.611 692.844 222.501 694.213 222.84L695.196 223.086C695.816 223.238 696.179 223.612 696.179 224.104C696.179 224.607 695.769 225.121 694.927 225.121C694.002 225.121 693.382 224.572 693.371 223.6H691.803ZM700.15 223.6C700.161 225.472 701.577 226.619 703.273 226.619C704.947 226.619 706.128 225.578 706.128 224.08C706.128 222.781 705.344 221.986 703.765 221.588L702.805 221.342C702.174 221.179 701.986 220.828 701.986 220.488C701.986 220.032 702.396 219.541 703.121 219.541C703.835 219.541 704.326 220.055 704.326 220.757H705.859C705.859 219.307 704.83 218.055 703.192 218.055C701.694 218.055 700.384 219.049 700.384 220.477C700.384 221.611 701.191 222.501 702.56 222.84L703.543 223.086C704.163 223.238 704.525 223.612 704.525 224.104C704.525 224.607 704.116 225.121 703.273 225.121C702.349 225.121 701.729 224.572 701.717 223.6H700.15ZM712.732 226.619C715.095 226.619 717.002 224.7 717.002 222.337C717.002 219.973 715.095 218.055 712.732 218.055C710.368 218.055 708.473 219.973 708.473 222.337C708.473 224.7 710.368 226.619 712.732 226.619ZM712.732 225.063C711.222 225.063 710.029 223.846 710.029 222.337C710.029 220.828 711.222 219.611 712.732 219.611C714.241 219.611 715.446 220.828 715.446 222.337C715.446 223.846 714.241 225.063 712.732 225.063ZM723.729 226.619C725.835 226.619 727.216 225.18 727.485 223.589H725.87C725.578 224.513 724.712 225.063 723.729 225.063C722.22 225.063 721.027 223.846 721.027 222.337C721.027 220.828 722.22 219.611 723.729 219.611C724.665 219.611 725.601 220.243 725.859 221.12H727.473C727.216 219.681 725.87 218.055 723.729 218.055C721.366 218.055 719.471 219.973 719.471 222.337C719.471 224.7 721.366 226.619 723.729 226.619ZM730.318 218.125V226.549H731.874V218.125H730.318ZM742.668 226.549L739.404 218.125H737.707L734.431 226.549H736.116L736.947 224.396H740.152L740.983 226.549H742.668ZM737.801 222.196C738.093 221.471 738.315 220.851 738.538 220.172H738.549C738.795 220.851 739.017 221.471 739.298 222.196L739.591 222.957H737.508L737.801 222.196ZM750.189 218.125H743.567V219.681H746.094V226.549H747.65V219.681H750.189V218.125ZM752.754 218.125V226.549H758.639V224.993H754.31V223.109H758.194V221.565H754.31V219.681H758.639V218.125H752.754Z" fill="#05192D"/>
<g clip-path="url(#clip1_7908_116529)">
<path fill-rule="evenodd" clip-rule="evenodd" d="M696.606 173.349V175.991L693.881 177.59V171.741L696.606 173.349ZM697.488 178.9V176.519L701.138 174.377L700.25 173.854L697.488 175.474V173.085C697.488 172.923 697.403 172.773 697.267 172.691L693.942 170.731C693.933 170.726 693.924 170.721 693.915 170.716C693.718 170.618 693.485 170.63 693.299 170.75C693.112 170.87 693 171.08 693 171.306V178.023C692.999 178.249 693.112 178.46 693.298 178.58C693.485 178.701 693.718 178.714 693.916 178.615L693.941 178.601L696.604 177.037V179.168C696.605 179.331 696.69 179.481 696.827 179.562L700.245 181.557L701.132 181.033L697.488 178.9Z" fill="#03EF62"/>
</g>
<path d="M708.619 180.148C710.4 180.148 711.662 179.003 712.012 177.529H710.846C710.506 178.473 709.626 179.045 708.619 179.045C707.081 179.045 705.893 177.805 705.893 176.267C705.893 174.729 707.081 173.489 708.619 173.489C709.541 173.489 710.528 174.114 710.814 174.995H711.98C711.662 173.616 710.358 172.386 708.619 172.386C706.477 172.386 704.791 174.125 704.791 176.267C704.791 178.409 706.477 180.148 708.619 180.148Z" fill="white"/>
<path d="M718.011 177.688C718.022 177.571 718.033 177.433 718.033 177.285C718.033 175.79 716.951 174.549 715.488 174.549C713.982 174.549 712.868 175.79 712.868 177.349C712.868 178.939 713.961 180.148 715.541 180.148C717.227 180.148 717.852 178.854 717.937 178.335H716.802C716.696 178.653 716.304 179.151 715.541 179.151C714.607 179.151 714.098 178.505 714.003 177.688H718.011ZM715.488 175.546C716.304 175.546 716.792 176.129 716.908 176.861H714.035C714.173 176.119 714.671 175.546 715.488 175.546Z" fill="white"/>
<path d="M721.758 174.549C721.09 174.549 720.592 174.857 720.306 175.334V174.613H719.203V180.085H720.306V177.147C720.306 176.097 720.889 175.631 721.716 175.631C721.96 175.631 722.161 175.663 722.289 175.684V174.581C722.161 174.57 722.013 174.549 721.758 174.549Z" fill="white"/>
<path d="M725.394 179.12C724.991 179.12 724.726 178.939 724.726 178.483V175.578H726.125V174.613H724.726V173.065H723.623V174.613H722.69V175.578H723.623V178.505C723.623 179.618 724.227 180.148 725.192 180.148C725.574 180.148 725.934 180.021 726.125 179.947V178.918C725.987 178.982 725.68 179.12 725.394 179.12Z" fill="white"/>
<path d="M727.811 173.839C728.257 173.839 728.628 173.489 728.628 173.043C728.628 172.598 728.267 172.248 727.811 172.248C727.366 172.248 727.016 172.598 727.016 173.043C727.016 173.489 727.366 173.839 727.811 173.839ZM728.352 174.613H727.249V180.085H728.352V174.613Z" fill="white"/>
<path d="M731.468 174.613V174.104C731.468 173.637 731.786 173.425 732.179 173.425C732.444 173.425 732.688 173.489 732.836 173.552V172.534C732.666 172.471 732.295 172.386 731.882 172.386C730.949 172.386 730.365 173.086 730.365 174.083V174.613H729.485V175.578H730.365V180.085H731.468V175.578H732.878V174.613H731.468Z" fill="white"/>
<path d="M734.459 173.839C734.905 173.839 735.276 173.489 735.276 173.043C735.276 172.598 734.915 172.248 734.459 172.248C734.014 172.248 733.664 172.598 733.664 173.043C733.664 173.489 734.014 173.839 734.459 173.839ZM735 174.613H733.897V180.085H735V174.613Z" fill="white"/>
<path d="M741.394 177.688C741.405 177.571 741.416 177.433 741.416 177.285C741.416 175.79 740.334 174.549 738.871 174.549C737.365 174.549 736.251 175.79 736.251 177.349C736.251 178.939 737.344 180.148 738.924 180.148C740.61 180.148 741.235 178.854 741.32 178.335H740.185C740.079 178.653 739.687 179.151 738.924 179.151C737.99 179.151 737.481 178.505 737.386 177.688H741.394ZM738.871 175.546C739.687 175.546 740.175 176.129 740.292 176.861H737.418C737.556 176.119 738.054 175.546 738.871 175.546Z" fill="white"/>
<path d="M746.497 172.45V175.451C746.147 174.931 745.51 174.549 744.768 174.549C743.485 174.549 742.372 175.737 742.372 177.349C742.372 178.96 743.485 180.148 744.768 180.148C745.51 180.148 746.104 179.862 746.497 179.247V180.085H747.599V172.45H746.497ZM745.023 179.077C744.121 179.077 743.474 178.303 743.474 177.349C743.474 176.394 744.121 175.631 745.023 175.631C745.924 175.631 746.497 176.394 746.497 177.349C746.497 178.303 745.924 179.077 745.023 179.077Z" fill="white"/>
<path d="M669.239 187.516V198.748H673.623C676.696 198.748 679.238 196.299 679.238 193.132C679.238 189.965 676.68 187.516 673.623 187.516H669.239ZM671.314 196.673V189.591H673.623C675.573 189.591 677.164 191.182 677.164 193.132C677.164 195.082 675.573 196.673 673.623 196.673H671.314ZM686.135 191.728C685.543 191.042 684.716 190.605 683.78 190.605C681.861 190.605 680.332 192.446 680.332 194.723C680.332 197.001 681.861 198.842 683.78 198.842C684.716 198.842 685.527 198.405 686.135 197.718V198.748H688.21V190.699H686.135V191.728ZM684.279 196.782C683.234 196.782 682.391 195.862 682.391 194.723C682.391 193.584 683.234 192.68 684.279 192.68C685.324 192.68 686.135 193.584 686.135 194.723C686.135 195.862 685.324 196.782 684.279 196.782ZM693.939 196.938C693.362 196.938 692.957 196.704 692.957 196.08V192.508H694.86V190.699H692.957V188.405H690.882V190.699H689.571V192.508H690.882V196.127C690.882 198.015 691.88 198.842 693.471 198.842C693.924 198.842 694.423 198.748 694.86 198.623V196.782C694.579 196.86 694.251 196.938 693.939 196.938ZM701.598 191.728C701.005 191.042 700.179 190.605 699.243 190.605C697.324 190.605 695.795 192.446 695.795 194.723C695.795 197.001 697.324 198.842 699.243 198.842C700.179 198.842 700.99 198.405 701.598 197.718V198.748H703.673V190.699H701.598V191.728ZM699.742 196.782C698.697 196.782 697.854 195.862 697.854 194.723C697.854 193.584 698.697 192.68 699.742 192.68C700.787 192.68 701.598 193.584 701.598 194.723C701.598 195.862 700.787 196.782 699.742 196.782ZM709.948 194.817C709.963 197.313 711.851 198.842 714.113 198.842C716.344 198.842 717.919 197.453 717.919 195.456C717.919 193.725 716.874 192.664 714.768 192.134L713.489 191.806C712.646 191.588 712.397 191.12 712.397 190.667C712.397 190.059 712.943 189.404 713.91 189.404C714.862 189.404 715.517 190.09 715.517 191.026H717.56C717.56 189.092 716.188 187.423 714.004 187.423C712.007 187.423 710.26 188.749 710.26 190.652C710.26 192.165 711.336 193.35 713.161 193.803L714.472 194.13C715.298 194.333 715.782 194.832 715.782 195.488C715.782 196.158 715.236 196.845 714.113 196.845C712.88 196.845 712.054 196.112 712.038 194.817H709.948ZM726.703 193.694C726.61 192.43 725.408 190.605 722.99 190.605C720.775 190.605 718.997 192.446 718.997 194.723C718.997 197.001 720.775 198.842 722.99 198.842C725.174 198.842 726.61 196.938 726.672 195.753H724.613C724.472 196.377 723.786 196.876 722.99 196.876C721.836 196.876 721.056 195.846 721.056 194.723C721.056 193.6 721.774 192.571 722.99 192.571C723.724 192.571 724.394 193.007 724.597 193.694H726.703ZM729.344 189.809C730.093 189.809 730.764 189.185 730.764 188.405C730.764 187.641 730.124 187.033 729.344 187.033C728.564 187.033 727.956 187.641 727.956 188.405C727.956 189.185 728.564 189.809 729.344 189.809ZM730.374 190.699H728.299V198.748H730.374V190.699ZM739.652 195.3C739.667 195.16 739.683 194.926 739.683 194.692C739.683 192.446 738.03 190.605 735.939 190.605C733.724 190.605 731.961 192.399 731.961 194.723C731.961 197.094 733.677 198.842 736.002 198.842C738.576 198.842 739.449 196.814 739.543 196.112H737.468C737.312 196.548 736.813 197.016 736.002 197.016C734.8 197.016 734.239 196.252 734.114 195.3H739.652ZM735.939 192.43C736.875 192.43 737.406 193.054 737.577 193.912H734.176C734.364 193.054 734.956 192.43 735.939 192.43ZM745.461 190.605C744.541 190.605 743.699 191.042 743.231 191.759V190.699H741.218V198.748H743.293V194.271C743.293 193.319 743.964 192.68 744.822 192.68C745.664 192.68 746.335 193.304 746.335 194.255V198.748H748.41V194.006C748.41 191.697 747.255 190.605 745.461 190.605ZM753.734 196.938C753.157 196.938 752.751 196.704 752.751 196.08V192.508H754.654V190.699H752.751V188.405H750.676V190.699H749.366V192.508H750.676V196.127C750.676 198.015 751.675 198.842 753.266 198.842C753.718 198.842 754.217 198.748 754.654 198.623V196.782C754.373 196.86 754.046 196.938 753.734 196.938ZM757.254 189.809C758.002 189.809 758.673 189.185 758.673 188.405C758.673 187.641 758.034 187.033 757.254 187.033C756.474 187.033 755.865 187.641 755.865 188.405C755.865 189.185 756.474 189.809 757.254 189.809ZM758.283 190.699H756.208V198.748H758.283V190.699ZM759.867 196.034C759.883 197.344 760.975 198.842 763.034 198.842C764.797 198.842 766.123 197.874 766.154 196.221C766.185 195.082 765.389 194.193 763.814 193.834L762.722 193.584C762.316 193.491 762.113 193.288 762.113 192.96C762.113 192.555 762.472 192.259 763.049 192.259C763.627 192.259 764.048 192.664 764.063 193.241H765.904C765.904 191.947 764.797 190.605 763.065 190.605C761.318 190.605 760.07 191.588 760.07 192.992C760.07 194.146 760.678 195.004 762.191 195.378L763.174 195.612C763.798 195.768 764.11 195.956 764.11 196.361C764.11 196.798 763.673 197.063 763.127 197.063C762.488 197.063 761.957 196.689 761.942 196.034H759.867ZM771.086 196.938C770.508 196.938 770.103 196.704 770.103 196.08V192.508H772.006V190.699H770.103V188.405H768.028V190.699H766.718V192.508H768.028V196.127C768.028 198.015 769.026 198.842 770.618 198.842C771.07 198.842 771.569 198.748 772.006 198.623V196.782C771.725 196.86 771.398 196.938 771.086 196.938Z" fill="white"/>
</g>
<defs>
<filter id="filter0_dd_7908_116529" x="648.15" y="75.1" width="144.299" height="167.7" filterUnits="userSpaceOnUse" color-interpolation-filters="sRGB">
<feFlood flood-opacity="0" result="BackgroundImageFix"/>
<feColorMatrix in="SourceAlpha" type="matrix" values="0 0 0 0 0 0 0 0 0 0 0 0 0 0 0 0 0 0 127 0" result="hardAlpha"/>
<feMorphology radius="1.94998" operator="erode" in="SourceAlpha" result="effect1_dropShadow_7908_116529"/>
<feOffset dy="1.94998"/>
<feGaussianBlur stdDeviation="3.89997"/>
<feColorMatrix type="matrix" values="0 0 0 0 0.0196078 0 0 0 0 0.0980392 0 0 0 0 0.176471 0 0 0 0.3 0"/>
<feBlend mode="normal" in2="BackgroundImageFix" result="effect1_dropShadow_7908_116529"/>
<feColorMatrix in="SourceAlpha" type="matrix" values="0 0 0 0 0 0 0 0 0 0 0 0 0 0 0 0 0 0 127 0" result="hardAlpha"/>
<feOffset/>
<feGaussianBlur stdDeviation="0.974991"/>
<feColorMatrix type="matrix" values="0 0 0 0 0.0196078 0 0 0 0 0.0980392 0 0 0 0 0.176471 0 0 0 0.3 0"/>
<feBlend mode="normal" in2="effect1_dropShadow_7908_116529" result="effect2_dropShadow_7908_116529"/>
<feBlend mode="normal" in="SourceGraphic" in2="effect2_dropShadow_7908_116529" result="shape"/>
</filter>
<filter id="filter1_d_7908_116529" x="667.174" y="111.275" width="106.251" height="106.251" filterUnits="userSpaceOnUse" color-interpolation-filters="sRGB">
<feFlood flood-opacity="0" result="BackgroundImageFix"/>
<feColorMatrix in="SourceAlpha" type="matrix" values="0 0 0 0 0 0 0 0 0 0 0 0 0 0 0 0 0 0 127 0" result="hardAlpha"/>
<feOffset dy="26.9004"/>
<feGaussianBlur stdDeviation="16.8127"/>
<feComposite in2="hardAlpha" operator="out"/>
<feColorMatrix type="matrix" values="0 0 0 0 0 0 0 0 0 0.0313726 0 0 0 0 0.12549 0 0 0 1 0"/>
<feBlend mode="normal" in2="BackgroundImageFix" result="effect1_dropShadow_7908_116529"/>
<feBlend mode="normal" in="SourceGraphic" in2="effect1_dropShadow_7908_116529" result="shape"/>
</filter>
<linearGradient id="paint0_linear_7908_116529" x1="15.3723" y1="31.5278" x2="63.3103" y2="233.778" gradientUnits="userSpaceOnUse">
<stop stop-color="#FCCE0D"/>
<stop offset="1" stop-color="#05192D"/>
</linearGradient>
<linearGradient id="paint1_linear_7908_116529" x1="6.45462" y1="-3.00194" x2="159.596" y2="-32.8697" gradientUnits="userSpaceOnUse">
<stop stop-color="#FCCE0D"/>
<stop offset="1" stop-color="#05192D"/>
</linearGradient>
<linearGradient id="paint2_linear_7908_116529" x1="26.3146" y1="74.7854" x2="205.343" y2="74.7854" gradientUnits="userSpaceOnUse">
<stop stop-color="#FCCE0D"/>
<stop offset="1" stop-color="#05192D"/>
</linearGradient>
<linearGradient id="paint3_linear_7908_116529" x1="322.8" y1="-95.0534" x2="274.208" y2="66.2289" gradientUnits="userSpaceOnUse">
<stop stop-color="#FCCE0D"/>
<stop offset="1" stop-color="#05192D"/>
</linearGradient>
<linearGradient id="paint4_linear_7908_116529" x1="5.29248" y1="85.7383" x2="-20.1115" y2="-85.209" gradientUnits="userSpaceOnUse">
<stop stop-color="#FCCE0D"/>
<stop offset="1" stop-color="#05192D"/>
</linearGradient>
<linearGradient id="paint5_linear_7908_116529" x1="184.842" y1="379.033" x2="434.128" y2="480.797" gradientUnits="userSpaceOnUse">
<stop stop-color="#FCCE0D"/>
<stop offset="1" stop-color="#05192D"/>
</linearGradient>
<linearGradient id="paint6_linear_7908_116529" x1="186.274" y1="281.355" x2="197.623" y2="169.023" gradientUnits="userSpaceOnUse">
<stop stop-color="#FCCE0D"/>
<stop offset="1" stop-color="#05192D"/>
</linearGradient>
<linearGradient id="paint7_linear_7908_116529" x1="720.299" y1="96.5488" x2="720.299" y2="163.823" gradientUnits="userSpaceOnUse">
<stop stop-color="white" stop-opacity="0.24"/>
<stop offset="1" stop-color="#05192D"/>
</linearGradient>
<linearGradient id="paint8_linear_7908_116529" x1="720.3" y1="110.199" x2="720.3" y2="164.799" gradientUnits="userSpaceOnUse">
<stop stop-color="white" stop-opacity="0.24"/>
<stop offset="1" stop-color="white" stop-opacity="0"/>
</linearGradient>
<clipPath id="clip0_7908_116529">
<rect width="87.5415" height="18.2922" fill="white" transform="translate(534.458 185.613)"/>
</clipPath>
<clipPath id="clip1_7908_116529">
<rect width="8.32291" height="11.0972" fill="white" transform="translate(693 170.65)"/>
</clipPath>
</defs>
</svg>
