<svg width="1500" height="500" viewBox="0 0 1500 500" fill="none" xmlns="http://www.w3.org/2000/svg">
<g clip-path="url(#clip0_7908_116600)">
<rect width="1500" height="500" fill="#05192D"/>
<mask id="mask0_7908_116600" style="mask-type:alpha" maskUnits="userSpaceOnUse" x="0" y="0" width="1500" height="500">
<rect width="1500" height="500" fill="#05192D"/>
</mask>
<g mask="url(#mask0_7908_116600)">
<path d="M-1.09454 332V332C32.2807 332 59.3366 304.944 59.3366 271.569L59.3366 -4.31239L-1.09457 -4.31238" stroke="url(#paint0_linear_7908_116600)" stroke-width="1.95036"/>
<rect x="-6.34918" y="-4.76367" width="284.395" height="112.951" stroke="url(#paint1_linear_7908_116600)" stroke-width="1.95036"/>
<circle cx="279.054" cy="109.193" r="77.654" stroke="url(#paint2_linear_7908_116600)" stroke-width="1.95036"/>
<path d="M525 33.245C525 67.6825 552.917 95.5996 587.355 95.5996L930.972 95.5997L930.972 -5.38841L525 -5.38849L525 33.245Z" stroke="url(#paint3_linear_7908_116600)" stroke-width="1.94858"/>
<rect width="181.457" height="189.857" rx="90.7283" transform="matrix(1 9.20383e-08 8.30387e-08 -1 840.369 95.5996)" stroke="url(#paint4_linear_7908_116600)" stroke-width="1.94858"/>
<path d="M733.38 458.627C733.38 433.189 712.759 412.568 687.322 412.568L182.54 412.568L182.54 533.605L733.38 533.605L733.38 458.627Z" stroke="url(#paint5_linear_7908_116600)" stroke-width="1.91911"/>
<path d="M380.523 353.213C380.523 315.057 349.591 284.125 311.435 284.125L182.54 284.125L182.54 454.801L380.523 454.801L380.523 353.213Z" stroke="url(#paint6_linear_7908_116600)" stroke-width="1.91911"/>
</g>
<path d="M827.76 215.727C836.743 215.727 842.631 209.589 843.779 202.802H836.892C835.645 206.744 831.952 209.09 827.76 209.09C821.322 209.09 816.232 203.9 816.232 197.462C816.232 191.025 821.322 185.835 827.76 185.835C831.752 185.835 835.744 188.529 836.842 192.272H843.729C842.631 186.134 836.892 179.197 827.76 179.197C817.679 179.197 809.595 187.382 809.595 197.462C809.595 207.543 817.679 215.727 827.76 215.727ZM872.115 204.399C872.165 203.95 872.215 203.201 872.215 202.453C872.215 195.266 866.925 189.378 860.238 189.378C853.152 189.378 847.513 195.117 847.513 202.552C847.513 210.138 853.002 215.727 860.438 215.727C868.672 215.727 871.466 209.24 871.766 206.994H865.129C864.63 208.391 863.033 209.888 860.438 209.888C856.595 209.888 854.799 207.443 854.399 204.399H872.115ZM860.238 195.217C863.232 195.217 864.929 197.213 865.478 199.957H854.599C855.198 197.213 857.094 195.217 860.238 195.217ZM890.75 189.378C887.805 189.378 885.31 190.575 883.763 193.121V189.677H877.126V215.428H883.763V202.652C883.763 197.911 886.208 195.865 890.051 195.865C891.698 195.865 892.995 196.115 893.594 196.215V189.577C892.995 189.527 892.047 189.378 890.75 189.378ZM909.22 209.639C907.373 209.639 906.076 208.89 906.076 206.894V195.466H912.164V189.677H906.076V182.341H899.439V189.677H895.247V195.466H899.439V207.044C899.439 213.082 902.632 215.727 907.723 215.727C909.17 215.727 910.767 215.428 912.164 215.029V209.14C911.266 209.389 910.218 209.639 909.22 209.639ZM920.479 186.833C922.875 186.833 925.021 184.836 925.021 182.341C925.021 179.896 922.975 177.95 920.479 177.95C917.984 177.95 916.038 179.896 916.038 182.341C916.038 184.836 917.984 186.833 920.479 186.833ZM923.773 189.677H917.136V215.428H923.773V189.677ZM939.37 189.677V188.08C939.37 185.984 940.767 185.286 942.514 185.286C943.661 185.286 944.759 185.585 945.059 185.685V179.846C944.51 179.646 942.663 179.197 940.418 179.197C935.477 179.197 932.732 182.89 932.732 188.03V189.677H928.59V195.466H932.732V215.428H939.37V195.466H945.458V189.677H939.37ZM953.18 186.833C955.576 186.833 957.721 184.836 957.721 182.341C957.721 179.896 955.675 177.95 953.18 177.95C950.685 177.95 948.739 179.896 948.739 182.341C948.739 184.836 950.685 186.833 953.18 186.833ZM956.474 189.677H949.837V215.428H956.474V189.677ZM986.154 204.399C986.204 203.95 986.254 203.201 986.254 202.453C986.254 195.266 980.964 189.378 974.277 189.378C967.19 189.378 961.551 195.117 961.551 202.552C961.551 210.138 967.041 215.727 974.476 215.727C982.711 215.727 985.505 209.24 985.805 206.994H979.167C978.668 208.391 977.071 209.888 974.476 209.888C970.634 209.888 968.837 207.443 968.438 204.399H986.154ZM974.277 195.217C977.271 195.217 978.968 197.213 979.517 199.957H968.638C969.236 197.213 971.133 195.217 974.277 195.217ZM1008.87 179.497V193.17C1007.22 190.975 1004.48 189.378 1001.43 189.378C995.395 189.378 990.305 194.817 990.305 202.552C990.305 210.288 995.395 215.727 1001.43 215.727C1004.48 215.727 1007.12 214.629 1008.87 211.934V215.428H1015.51V179.497H1008.87ZM1002.93 209.14C999.587 209.14 996.892 206.195 996.892 202.552C996.892 198.909 999.587 195.965 1002.93 195.965C1006.32 195.965 1008.87 198.909 1008.87 202.552C1008.87 206.195 1006.32 209.14 1002.93 209.14ZM1054.29 192.971C1052.39 190.775 1049.75 189.378 1046.75 189.378C1040.62 189.378 1035.73 195.266 1035.73 202.552C1035.73 209.838 1040.62 215.727 1046.75 215.727C1049.75 215.727 1052.34 214.33 1054.29 212.134V215.428H1060.93V189.677H1054.29V192.971ZM1048.35 209.14C1045.01 209.14 1042.31 206.195 1042.31 202.552C1042.31 198.909 1045.01 196.015 1048.35 196.015C1051.69 196.015 1054.29 198.909 1054.29 202.552C1054.29 206.195 1051.69 209.14 1048.35 209.14ZM1065.93 206.744C1065.98 210.936 1069.47 215.727 1076.06 215.727C1081.7 215.727 1085.94 212.633 1086.04 207.343C1086.14 203.7 1083.6 200.856 1078.56 199.708L1075.06 198.909C1073.77 198.61 1073.12 197.961 1073.12 196.913C1073.12 195.616 1074.26 194.668 1076.11 194.668C1077.96 194.668 1079.3 195.965 1079.35 197.812H1085.24C1085.24 193.67 1081.7 189.378 1076.16 189.378C1070.57 189.378 1066.58 192.522 1066.58 197.013C1066.58 200.706 1068.53 203.451 1073.37 204.648L1076.51 205.397C1078.51 205.896 1079.5 206.495 1079.5 207.792C1079.5 209.19 1078.11 210.038 1076.36 210.038C1074.31 210.038 1072.62 208.84 1072.57 206.744H1065.93ZM1122.96 192.971C1121.06 190.775 1118.42 189.378 1115.42 189.378C1109.28 189.378 1104.39 195.266 1104.39 202.552C1104.39 209.838 1109.28 215.727 1115.42 215.727C1118.42 215.727 1121.01 214.33 1122.96 212.134V215.428H1129.59V189.677H1122.96V192.971ZM1117.02 209.14C1113.67 209.14 1110.98 206.195 1110.98 202.552C1110.98 198.909 1113.67 196.015 1117.02 196.015C1120.36 196.015 1122.96 198.909 1122.96 202.552C1122.96 206.195 1120.36 209.14 1117.02 209.14ZM555.779 241.497V277.428H569.802C579.633 277.428 587.767 269.593 587.767 259.462C587.767 249.332 579.583 241.497 569.802 241.497H555.779ZM562.416 270.79V248.134H569.802C576.04 248.134 581.13 253.224 581.13 259.462C581.13 265.7 576.04 270.79 569.802 270.79H562.416ZM609.831 254.971C607.934 252.775 605.29 251.378 602.295 251.378C596.157 251.378 591.266 257.266 591.266 264.552C591.266 271.838 596.157 277.727 602.295 277.727C605.29 277.727 607.885 276.33 609.831 274.134V277.428H616.468V251.677H609.831V254.971ZM603.892 271.14C600.549 271.14 597.854 268.195 597.854 264.552C597.854 260.909 600.549 258.015 603.892 258.015C607.236 258.015 609.831 260.909 609.831 264.552C609.831 268.195 607.236 271.14 603.892 271.14ZM634.796 271.639C632.949 271.639 631.652 270.89 631.652 268.894V257.466H637.74V251.677H631.652V244.341H625.015V251.677H620.823V257.466H625.015V269.044C625.015 275.082 628.208 277.727 633.299 277.727C634.746 277.727 636.343 277.428 637.74 277.029V271.14C636.842 271.389 635.794 271.639 634.796 271.639ZM659.296 254.971C657.4 252.775 654.755 251.378 651.761 251.378C645.623 251.378 640.732 257.266 640.732 264.552C640.732 271.838 645.623 277.727 651.761 277.727C654.755 277.727 657.35 276.33 659.296 274.134V277.428H665.934V251.677H659.296V254.971ZM653.358 271.14C650.014 271.14 647.319 268.195 647.319 264.552C647.319 260.909 650.014 258.015 653.358 258.015C656.701 258.015 659.296 260.909 659.296 264.552C659.296 268.195 656.701 271.14 653.358 271.14ZM686.006 264.852C686.056 272.837 692.095 277.727 699.331 277.727C706.467 277.727 711.507 273.286 711.507 266.898C711.507 261.359 708.164 257.965 701.427 256.268L697.335 255.22C694.64 254.522 693.841 253.025 693.841 251.577C693.841 249.631 695.588 247.535 698.682 247.535C701.726 247.535 703.822 249.731 703.822 252.725H710.36C710.36 246.537 705.968 241.197 698.981 241.197C692.594 241.197 687.004 245.439 687.004 251.527C687.004 256.368 690.448 260.161 696.287 261.608L700.479 262.656C703.123 263.305 704.67 264.902 704.67 266.998C704.67 269.144 702.924 271.339 699.331 271.339C695.388 271.339 692.743 268.994 692.693 264.852H686.006ZM739.607 261.259C739.308 257.217 735.465 251.378 727.73 251.378C720.644 251.378 714.955 257.266 714.955 264.552C714.955 271.838 720.644 277.727 727.73 277.727C734.717 277.727 739.308 271.639 739.507 267.846H732.92C732.471 269.842 730.275 271.439 727.73 271.439C724.037 271.439 721.542 268.146 721.542 264.552C721.542 260.959 723.838 257.666 727.73 257.666C730.076 257.666 732.221 259.063 732.87 261.259H739.607ZM748.057 248.833C750.452 248.833 752.598 246.836 752.598 244.341C752.598 241.896 750.552 239.95 748.057 239.95C745.561 239.95 743.615 241.896 743.615 244.341C743.615 246.836 745.561 248.833 748.057 248.833ZM751.35 251.677H744.713V277.428H751.35V251.677ZM781.03 266.399C781.08 265.95 781.13 265.201 781.13 264.453C781.13 257.266 775.84 251.378 769.153 251.378C762.067 251.378 756.428 257.117 756.428 264.552C756.428 272.138 761.917 277.727 769.353 277.727C777.587 277.727 780.382 271.24 780.681 268.994H774.044C773.545 270.391 771.948 271.888 769.353 271.888C765.51 271.888 763.714 269.443 763.314 266.399H781.03ZM769.153 257.217C772.147 257.217 773.844 259.213 774.393 261.957H763.514C764.113 259.213 766.009 257.217 769.153 257.217ZM799.615 251.378C796.671 251.378 793.976 252.775 792.479 255.071V251.677H786.041V277.428H792.678V263.105C792.678 260.061 794.824 258.015 797.569 258.015C800.264 258.015 802.41 260.011 802.41 263.055V277.428H809.047V262.257C809.047 254.871 805.354 251.378 799.615 251.378ZM826.079 271.639C824.232 271.639 822.935 270.89 822.935 268.894V257.466H829.023V251.677H822.935V244.341H816.297V251.677H812.105V257.466H816.297V269.044C816.297 275.082 819.491 277.727 824.582 277.727C826.029 277.727 827.626 277.428 829.023 277.029V271.14C828.125 271.389 827.077 271.639 826.079 271.639ZM837.338 248.833C839.734 248.833 841.88 246.836 841.88 244.341C841.88 241.896 839.833 239.95 837.338 239.95C834.843 239.95 832.897 241.896 832.897 244.341C832.897 246.836 834.843 248.833 837.338 248.833ZM840.632 251.677H833.995V277.428H840.632V251.677ZM845.699 268.744C845.749 272.936 849.242 277.727 855.829 277.727C861.469 277.727 865.71 274.633 865.81 269.343C865.91 265.7 863.365 262.856 858.325 261.708L854.831 260.909C853.534 260.61 852.885 259.961 852.885 258.913C852.885 257.616 854.033 256.668 855.879 256.668C857.726 256.668 859.073 257.965 859.123 259.812H865.012C865.012 255.67 861.469 251.378 855.929 251.378C850.34 251.378 846.348 254.522 846.348 259.013C846.348 262.706 848.294 265.451 853.135 266.648L856.278 267.397C858.275 267.896 859.273 268.495 859.273 269.792C859.273 271.19 857.875 272.038 856.129 272.038C854.083 272.038 852.386 270.84 852.336 268.744H845.699ZM881.587 271.639C879.741 271.639 878.443 270.89 878.443 268.894V257.466H884.532V251.677H878.443V244.341H871.806V251.677H867.614V257.466H871.806V269.044C871.806 275.082 875 277.727 880.09 277.727C881.537 277.727 883.134 277.428 884.532 277.029V271.14C883.633 271.389 882.585 271.639 881.587 271.639ZM936.46 277.428L922.537 241.497H915.301L901.328 277.428H908.514L912.057 268.245H925.731L929.274 277.428H936.46ZM915.7 258.863C916.948 255.769 917.896 253.124 918.844 250.23H918.894C919.942 253.124 920.89 255.769 922.088 258.863L923.336 262.107H914.453L915.7 258.863ZM938.538 268.744C938.588 272.936 942.081 277.727 948.669 277.727C954.308 277.727 958.55 274.633 958.649 269.343C958.749 265.7 956.204 262.856 951.164 261.708L947.67 260.909C946.373 260.61 945.724 259.961 945.724 258.913C945.724 257.616 946.872 256.668 948.718 256.668C950.565 256.668 951.912 257.965 951.962 259.812H957.851C957.851 255.67 954.308 251.378 948.768 251.378C943.179 251.378 939.187 254.522 939.187 259.013C939.187 262.706 941.133 265.451 945.974 266.648L949.118 267.397C951.114 267.896 952.112 268.495 952.112 269.792C952.112 271.19 950.715 272.038 948.968 272.038C946.922 272.038 945.225 270.84 945.175 268.744H938.538ZM961.931 268.744C961.98 272.936 965.474 277.727 972.061 277.727C977.7 277.727 981.942 274.633 982.042 269.343C982.142 265.7 979.597 262.856 974.556 261.708L971.063 260.909C969.766 260.61 969.117 259.961 969.117 258.913C969.117 257.616 970.265 256.668 972.111 256.668C973.957 256.668 975.305 257.965 975.355 259.812H981.243C981.243 255.67 977.7 251.378 972.161 251.378C966.572 251.378 962.579 254.522 962.579 259.013C962.579 262.706 964.526 265.451 969.366 266.648L972.51 267.397C974.506 267.896 975.505 268.495 975.505 269.792C975.505 271.19 974.107 272.038 972.361 272.038C970.314 272.038 968.618 270.84 968.568 268.744H961.931ZM998.548 277.727H998.598C1005.63 277.727 1011.32 271.789 1011.32 264.552C1011.32 257.316 1005.63 251.378 998.598 251.378H998.548C991.461 251.378 985.772 257.266 985.772 264.552C985.772 271.838 991.461 277.727 998.548 277.727ZM998.548 271.14C995.054 271.14 992.36 268.146 992.36 264.552C992.36 260.959 995.054 258.015 998.548 257.965H998.598C1001.99 257.965 1004.69 260.959 1004.69 264.552C1004.69 268.146 1002.04 271.14 998.598 271.14H998.548ZM1040.01 261.259C1039.71 257.217 1035.86 251.378 1028.13 251.378C1021.04 251.378 1015.35 257.266 1015.35 264.552C1015.35 271.838 1021.04 277.727 1028.13 277.727C1035.12 277.727 1039.71 271.639 1039.91 267.846H1033.32C1032.87 269.842 1030.67 271.439 1028.13 271.439C1024.44 271.439 1021.94 268.146 1021.94 264.552C1021.94 260.959 1024.24 257.666 1028.13 257.666C1030.48 257.666 1032.62 259.063 1033.27 261.259H1040.01ZM1048.46 248.833C1050.85 248.833 1053 246.836 1053 244.341C1053 241.896 1050.95 239.95 1048.46 239.95C1045.96 239.95 1044.01 241.896 1044.01 244.341C1044.01 246.836 1045.96 248.833 1048.46 248.833ZM1051.75 251.677H1045.11V277.428H1051.75V251.677ZM1075.39 254.971C1073.5 252.775 1070.85 251.378 1067.86 251.378C1061.72 251.378 1056.83 257.266 1056.83 264.552C1056.83 271.838 1061.72 277.727 1067.86 277.727C1070.85 277.727 1073.45 276.33 1075.39 274.134V277.428H1082.03V251.677H1075.39V254.971ZM1069.45 271.14C1066.11 271.14 1063.41 268.195 1063.41 264.552C1063.41 260.909 1066.11 258.015 1069.45 258.015C1072.8 258.015 1075.39 260.909 1075.39 264.552C1075.39 268.195 1072.8 271.14 1069.45 271.14ZM1100.36 271.639C1098.51 271.639 1097.21 270.89 1097.21 268.894V257.466H1103.3V251.677H1097.21V244.341H1090.58V251.677H1086.38V257.466H1090.58V269.044C1090.58 275.082 1093.77 277.727 1098.86 277.727C1100.31 277.727 1101.9 277.428 1103.3 277.029V271.14C1102.4 271.389 1101.35 271.639 1100.36 271.639ZM1130.9 266.399C1130.95 265.95 1131 265.201 1131 264.453C1131 257.266 1125.71 251.378 1119.02 251.378C1111.93 251.378 1106.29 257.117 1106.29 264.552C1106.29 272.138 1111.78 277.727 1119.22 277.727C1127.45 277.727 1130.25 271.24 1130.55 268.994H1123.91C1123.41 270.391 1121.81 271.888 1119.22 271.888C1115.38 271.888 1113.58 269.443 1113.18 266.399H1130.9ZM1119.02 257.217C1122.01 257.217 1123.71 259.213 1124.26 261.957H1113.38C1113.98 259.213 1115.87 257.217 1119.02 257.217Z" fill="white"/>
<path d="M949.166 316.045C950.4 315.359 951.291 314.033 951.291 312.525C951.291 310.102 949.12 308.113 946.583 308.113H940.023V324.57H947.246C949.714 324.57 951.931 322.582 951.931 320.159C951.954 318.422 950.949 316.799 949.166 316.068V316.045ZM946.583 310.49C947.886 310.49 948.914 311.519 948.914 312.799C948.914 313.965 947.954 314.993 946.674 315.016H942.4V310.49H946.583ZM942.4 322.193V317.416H947.246C948.526 317.416 949.554 318.536 949.554 319.816C949.554 321.119 948.526 322.193 947.246 322.193H942.4ZM962.073 312.776V319.633C962.073 321.096 960.885 322.353 959.376 322.353C957.891 322.353 956.702 321.119 956.702 319.633V312.776H954.325V319.908C954.325 322.582 955.925 324.707 958.531 324.707C959.993 324.707 961.273 323.93 962.073 322.97V324.433C962.073 326.559 960.885 327.953 958.988 327.953C957.182 327.953 956.176 327.016 955.994 325.553H953.502C953.639 327.907 955.514 330.193 958.942 330.193C962.142 330.193 964.451 327.793 964.451 324.342V312.776H962.073Z" fill="white"/>
<g clip-path="url(#clip1_7908_116600)">
<path fill-rule="evenodd" clip-rule="evenodd" d="M1017.53 323.655C1014.75 323.655 1012.49 321.389 1012.49 318.593C1012.49 315.798 1014.75 313.532 1017.53 313.532C1020.32 313.532 1022.57 315.798 1022.57 318.593C1022.57 319.936 1022.04 321.223 1021.1 322.173C1020.15 323.122 1018.87 323.655 1017.53 323.655ZM1022.58 305.324V313.193C1019.66 310.433 1015.07 310.529 1012.26 313.409C1009.45 316.289 1009.45 320.896 1012.26 323.776C1015.07 326.656 1019.66 326.752 1022.58 323.992V325.623H1024.91V305.324H1022.58ZM1087.45 323.655C1084.67 323.655 1082.41 321.389 1082.41 318.593C1082.41 315.798 1084.67 313.532 1087.45 313.532C1090.23 313.532 1092.49 315.798 1092.49 318.593C1092.49 319.936 1091.96 321.223 1091.02 322.173C1090.07 323.122 1088.79 323.655 1087.45 323.655ZM1094.83 318.593V311.263H1092.5V313.193C1089.57 310.433 1084.99 310.529 1082.18 313.409C1079.37 316.289 1079.37 320.896 1082.18 323.776C1084.99 326.656 1089.57 326.752 1092.5 323.992V325.623H1094.83V318.593H1094.83ZM1113.41 311.808C1113.61 311.464 1113.99 311.254 1114.39 311.255H1114.84C1115.79 311.255 1116.56 312.03 1116.56 312.986V325.623H1114.18V314.917C1113.09 316.695 1109.16 323.139 1107.98 325.072C1107.77 325.415 1107.4 325.624 1107 325.623H1106.52C1105.88 325.623 1105.37 325.107 1105.37 324.47V314.89C1104.08 316.972 1100.14 323.445 1098.9 325.515L1098.83 325.623H1096.55V311.259H1098.93V311.289L1098.87 321.197L1104.57 311.811C1104.78 311.467 1105.15 311.258 1105.55 311.258H1106.01C1106.96 311.258 1107.73 312.03 1107.73 312.984C1107.73 315.625 1107.74 320.435 1107.74 321.135L1113.41 311.808ZM1079.84 322.955C1077.94 325.573 1074.57 326.65 1071.52 325.614C1068.46 324.579 1066.43 321.671 1066.5 318.435C1066.57 315.198 1068.73 312.383 1071.83 311.484C1074.92 310.585 1078.24 311.81 1080.02 314.509L1077.79 315.675C1076.59 313.97 1074.44 313.216 1072.44 313.796C1070.44 314.376 1069.02 316.163 1068.91 318.25C1068.79 320.338 1070 322.27 1071.93 323.068C1073.85 323.865 1076.07 323.352 1077.45 321.791L1079.84 322.955ZM1125.46 323.666C1122.8 323.665 1120.6 321.58 1120.44 318.909V318.303C1120.6 315.552 1122.93 313.438 1125.67 313.549C1128.41 313.659 1130.56 315.952 1130.51 318.708C1130.45 321.463 1128.21 323.668 1125.47 323.668L1125.46 323.666ZM1125.47 311.199C1123.6 311.197 1121.8 311.909 1120.44 313.19V311.263H1118.11V331.487H1120.44V324.021C1122.85 326.286 1126.48 326.658 1129.3 324.932C1132.13 323.205 1133.46 319.802 1132.57 316.604C1131.68 313.407 1128.77 311.197 1125.47 311.198V311.199ZM1046.49 313.505V322.338C1046.49 322.862 1046.92 323.287 1047.44 323.287H1050.15V325.623H1047.44C1045.63 325.622 1044.17 324.152 1044.17 322.338L1044.16 313.505H1041.65V311.229H1044.16V307.303H1046.49V311.238H1050.63V313.505H1046.49ZM1057.79 323.654C1055 323.654 1052.75 321.387 1052.75 318.592C1052.75 315.797 1055 313.53 1057.79 313.53C1060.57 313.53 1062.83 315.797 1062.83 318.592C1062.83 319.934 1062.3 321.222 1061.35 322.171C1060.41 323.12 1059.12 323.654 1057.79 323.654ZM1062.84 311.262V313.193C1059.91 310.433 1055.32 310.529 1052.51 313.409C1049.7 316.289 1049.7 320.896 1052.51 323.776C1055.32 326.656 1059.91 326.752 1062.84 323.992V325.623H1065.16V311.259L1062.84 311.262ZM1033.22 323.655C1030.44 323.655 1028.18 321.389 1028.18 318.593C1028.18 315.798 1030.44 313.532 1033.22 313.532C1036.01 313.532 1038.26 315.798 1038.26 318.593C1038.26 319.936 1037.73 321.224 1036.79 322.173C1035.84 323.122 1034.56 323.655 1033.22 323.655ZM1038.27 311.263V313.193C1035.35 310.433 1030.76 310.529 1027.95 313.409C1025.14 316.289 1025.14 320.896 1027.95 323.776C1030.76 326.656 1035.35 326.752 1038.27 323.992V325.623H1040.6V311.259L1038.27 311.263Z" fill="white"/>
<path fill-rule="evenodd" clip-rule="evenodd" d="M990.215 307.137V314.544L982.388 319.026V302.627L990.215 307.137ZM992.747 322.699V316.023L1003.23 310.017L1000.68 308.55L992.747 313.094V306.396C992.746 305.941 992.504 305.52 992.111 305.292L982.564 299.797C982.538 299.781 982.513 299.768 982.487 299.755C981.92 299.478 981.251 299.514 980.716 299.851C980.182 300.187 979.858 300.776 979.859 301.41V320.24C979.857 320.874 980.181 321.464 980.716 321.802C981.251 322.139 981.921 322.175 982.489 321.898L982.561 321.861L990.209 317.476V323.449C990.211 323.906 990.454 324.327 990.848 324.555L1000.66 330.147L1003.21 328.679L992.747 322.699Z" fill="#03EF62"/>
</g>
<g filter="url(#filter0_dd_7908_116600)">
<path d="M1192.4 229.599C1192.4 167.633 1242.63 117.4 1304.6 117.4C1366.57 117.4 1416.8 167.633 1416.8 229.599V372.398C1416.8 378.031 1412.23 382.598 1406.6 382.598H1202.6C1196.97 382.598 1192.4 378.031 1192.4 372.398V229.599Z" fill="#05192D" stroke="#FCCE0D" stroke-width="6.79995"/>
<circle cx="1304.6" cy="226.195" r="81.5994" stroke="url(#paint7_linear_7908_116600)" stroke-width="3.39998"/>
<circle cx="1304.6" cy="215.996" r="47.5997" fill="url(#paint8_linear_7908_116600)"/>
<g filter="url(#filter1_d_7908_116600)">
<circle cx="1304.6" cy="215.998" r="33.9998" fill="white"/>
</g>
<path fill-rule="evenodd" clip-rule="evenodd" d="M1304.6 197.867C1311.48 197.867 1317.07 203.449 1317.07 210.334C1317.07 214.205 1315.3 217.664 1312.53 219.951V232.196C1312.53 233.769 1310.98 234.836 1309.54 234.344L1309.3 234.247L1304.59 232.033L1299.9 234.246C1298.47 234.917 1296.85 233.968 1296.68 232.453L1296.67 232.196V219.951C1293.9 217.664 1292.13 214.205 1292.13 210.334C1292.13 203.449 1297.71 197.867 1304.6 197.867ZM1301.2 222.331V228.62L1303.63 227.479C1304.15 227.233 1304.75 227.197 1305.29 227.373L1305.56 227.478L1308 228.624V222.331C1306.92 222.637 1305.78 222.8 1304.6 222.8C1303.42 222.8 1302.28 222.637 1301.2 222.331ZM1304.6 202.4C1300.22 202.4 1296.67 205.952 1296.67 210.333C1296.67 214.715 1300.22 218.267 1304.6 218.267C1308.98 218.267 1312.53 214.715 1312.53 210.333C1312.53 205.952 1308.98 202.4 1304.6 202.4Z" fill="#05192D"/>
<path d="M1189 345.199H1420.2V372.399C1420.2 379.91 1414.11 385.999 1406.6 385.999H1202.6C1195.09 385.999 1189 379.91 1189 372.399V345.199Z" fill="#FCCE0D"/>
<path d="M1251.36 371.598L1245.67 356.91H1242.71L1237 371.598H1239.94L1241.38 367.844H1246.97L1248.42 371.598H1251.36ZM1242.87 364.009C1243.38 362.744 1243.77 361.663 1244.16 360.48H1244.18C1244.61 361.663 1244.99 362.744 1245.48 364.009L1245.99 365.335H1242.36L1242.87 364.009ZM1254.91 366.457C1254.93 369.721 1257.4 371.72 1260.36 371.72C1263.28 371.72 1265.34 369.904 1265.34 367.293C1265.34 365.029 1263.97 363.642 1261.22 362.948L1259.54 362.52C1258.44 362.234 1258.12 361.622 1258.12 361.031C1258.12 360.235 1258.83 359.378 1260.09 359.378C1261.34 359.378 1262.2 360.276 1262.2 361.5H1264.87C1264.87 358.97 1263.07 356.787 1260.22 356.787C1257.61 356.787 1255.32 358.521 1255.32 361.01C1255.32 362.989 1256.73 364.539 1259.12 365.131L1260.83 365.559C1261.91 365.824 1262.54 366.477 1262.54 367.334C1262.54 368.211 1261.83 369.109 1260.36 369.109C1258.75 369.109 1257.67 368.15 1257.65 366.457H1254.91ZM1269.47 366.457C1269.49 369.721 1271.96 371.72 1274.91 371.72C1277.83 371.72 1279.89 369.904 1279.89 367.293C1279.89 365.029 1278.52 363.642 1275.77 362.948L1274.1 362.52C1273 362.234 1272.67 361.622 1272.67 361.031C1272.67 360.235 1273.38 359.378 1274.65 359.378C1275.89 359.378 1276.75 360.276 1276.75 361.5H1279.42C1279.42 358.97 1277.63 356.787 1274.77 356.787C1272.16 356.787 1269.87 358.521 1269.87 361.01C1269.87 362.989 1271.28 364.539 1273.67 365.131L1275.38 365.559C1276.46 365.824 1277.1 366.477 1277.1 367.334C1277.1 368.211 1276.38 369.109 1274.91 369.109C1273.3 369.109 1272.22 368.15 1272.2 366.457H1269.47ZM1291.4 371.72C1295.53 371.72 1298.85 368.374 1298.85 364.254C1298.85 360.133 1295.53 356.787 1291.4 356.787C1287.28 356.787 1283.98 360.133 1283.98 364.254C1283.98 368.374 1287.28 371.72 1291.4 371.72ZM1291.4 369.007C1288.77 369.007 1286.69 366.885 1286.69 364.254C1286.69 361.622 1288.77 359.501 1291.4 359.501C1294.04 359.501 1296.14 361.622 1296.14 364.254C1296.14 366.885 1294.04 369.007 1291.4 369.007ZM1310.58 371.72C1314.25 371.72 1316.66 369.211 1317.13 366.436H1314.31C1313.8 368.048 1312.29 369.007 1310.58 369.007C1307.95 369.007 1305.87 366.885 1305.87 364.254C1305.87 361.622 1307.95 359.501 1310.58 359.501C1312.21 359.501 1313.84 360.602 1314.29 362.132H1317.11C1316.66 359.623 1314.31 356.787 1310.58 356.787C1306.46 356.787 1303.15 360.133 1303.15 364.254C1303.15 368.374 1306.46 371.72 1310.58 371.72ZM1322.07 356.91V371.598H1324.78V356.91H1322.07ZM1343.6 371.598L1337.91 356.91H1334.95L1329.24 371.598H1332.18L1333.63 367.844H1339.21L1340.66 371.598H1343.6ZM1335.11 364.009C1335.62 362.744 1336.01 361.663 1336.4 360.48H1336.42C1336.85 361.663 1337.24 362.744 1337.73 364.009L1338.24 365.335H1334.6L1335.11 364.009ZM1356.71 356.91H1345.17V359.623H1349.57V371.598H1352.29V359.623H1356.71V356.91ZM1361.19 356.91V371.598H1371.45V368.884H1363.9V365.6H1370.67V362.907H1363.9V359.623H1371.45V356.91H1361.19Z" fill="#05192D"/>
<g clip-path="url(#clip2_7908_116600)">
<path fill-rule="evenodd" clip-rule="evenodd" d="M1263.29 278.507V283.113L1258.54 285.901V275.702L1263.29 278.507ZM1264.83 288.185V284.033L1271.19 280.298L1269.64 279.386L1264.83 282.212V278.046C1264.82 277.763 1264.68 277.501 1264.44 277.359L1258.64 273.942C1258.63 273.932 1258.61 273.924 1258.6 273.916C1258.25 273.744 1257.85 273.766 1257.52 273.975C1257.2 274.184 1257 274.551 1257 274.945V286.656C1257 287.05 1257.2 287.417 1257.52 287.627C1257.84 287.837 1258.25 287.86 1258.6 287.687L1258.64 287.664L1263.28 284.937V288.652C1263.29 288.936 1263.43 289.198 1263.67 289.339L1269.63 292.817L1271.18 291.905L1264.83 288.185Z" fill="#03EF62"/>
</g>
<path d="M1284.23 290.362C1287.34 290.362 1289.54 288.366 1290.15 285.796H1288.12C1287.52 287.441 1285.99 288.44 1284.23 288.44C1281.55 288.44 1279.48 286.276 1279.48 283.595C1279.48 280.914 1281.55 278.751 1284.23 278.751C1285.84 278.751 1287.56 279.842 1288.06 281.377H1290.09C1289.54 278.973 1287.27 276.828 1284.23 276.828C1280.5 276.828 1277.56 279.861 1277.56 283.595C1277.56 287.33 1280.5 290.362 1284.23 290.362Z" fill="white"/>
<path d="M1300.61 286.073C1300.63 285.87 1300.65 285.629 1300.65 285.37C1300.65 282.763 1298.76 280.6 1296.21 280.6C1293.58 280.6 1291.64 282.763 1291.64 285.481C1291.64 288.255 1293.55 290.362 1296.3 290.362C1299.24 290.362 1300.33 288.107 1300.48 287.201H1298.5C1298.32 287.755 1297.63 288.624 1296.3 288.624C1294.67 288.624 1293.79 287.497 1293.62 286.073H1300.61ZM1296.21 282.338C1297.63 282.338 1298.48 283.355 1298.69 284.631H1293.68C1293.92 283.337 1294.79 282.338 1296.21 282.338Z" fill="white"/>
<path d="M1307.14 280.6C1305.98 280.6 1305.11 281.136 1304.61 281.968V280.711H1302.69V290.252H1304.61V285.13C1304.61 283.3 1305.63 282.486 1307.07 282.486C1307.49 282.486 1307.85 282.541 1308.07 282.578V280.656C1307.85 280.637 1307.59 280.6 1307.14 280.6Z" fill="white"/>
<path d="M1313.48 288.569C1312.78 288.569 1312.32 288.255 1312.32 287.46V282.394H1314.76V280.711H1312.32V278.012H1310.39V280.711H1308.77V282.394H1310.39V287.497C1310.39 289.438 1311.45 290.362 1313.13 290.362C1313.8 290.362 1314.42 290.141 1314.76 290.011V288.218C1314.52 288.329 1313.98 288.569 1313.48 288.569Z" fill="white"/>
<path d="M1317.7 279.361C1318.47 279.361 1319.12 278.751 1319.12 277.975C1319.12 277.198 1318.49 276.588 1317.7 276.588C1316.92 276.588 1316.31 277.198 1316.31 277.975C1316.31 278.751 1316.92 279.361 1317.7 279.361ZM1318.64 280.711H1316.72V290.252H1318.64V280.711Z" fill="white"/>
<path d="M1324.07 280.711V279.824C1324.07 279.01 1324.63 278.64 1325.31 278.64C1325.77 278.64 1326.2 278.751 1326.46 278.862V277.087C1326.16 276.976 1325.51 276.828 1324.79 276.828C1323.17 276.828 1322.15 278.049 1322.15 279.787V280.711H1320.62V282.394H1322.15V290.252H1324.07V282.394H1326.53V280.711H1324.07Z" fill="white"/>
<path d="M1329.29 279.361C1330.07 279.361 1330.71 278.751 1330.71 277.975C1330.71 277.198 1330.08 276.588 1329.29 276.588C1328.51 276.588 1327.9 277.198 1327.9 277.975C1327.9 278.751 1328.51 279.361 1329.29 279.361ZM1330.23 280.711H1328.31V290.252H1330.23V280.711Z" fill="white"/>
<path d="M1341.38 286.073C1341.4 285.87 1341.42 285.629 1341.42 285.37C1341.42 282.763 1339.53 280.6 1336.98 280.6C1334.35 280.6 1332.41 282.763 1332.41 285.481C1332.41 288.255 1334.32 290.362 1337.07 290.362C1340.01 290.362 1341.1 288.107 1341.25 287.201H1339.27C1339.09 287.755 1338.4 288.624 1337.07 288.624C1335.45 288.624 1334.56 287.497 1334.39 286.073H1341.38ZM1336.98 282.338C1338.4 282.338 1339.25 283.355 1339.46 284.631H1334.45C1334.69 283.337 1335.56 282.338 1336.98 282.338Z" fill="white"/>
<path d="M1350.28 276.939V282.172C1349.67 281.266 1348.56 280.6 1347.26 280.6C1345.03 280.6 1343.08 282.671 1343.08 285.481C1343.08 288.292 1345.03 290.362 1347.26 290.362C1348.56 290.362 1349.59 289.863 1350.28 288.791V290.252H1352.2V276.939H1350.28ZM1347.71 288.495C1346.13 288.495 1345.01 287.145 1345.01 285.481C1345.01 283.817 1346.13 282.486 1347.71 282.486C1349.28 282.486 1350.28 283.817 1350.28 285.481C1350.28 287.145 1349.28 288.495 1347.71 288.495Z" fill="white"/>
<path d="M1215.57 303.567V323.15H1223.21C1228.57 323.15 1233.01 318.88 1233.01 313.358C1233.01 307.837 1228.54 303.567 1223.21 303.567H1215.57ZM1219.19 319.533V307.184H1223.21C1226.61 307.184 1229.39 309.958 1229.39 313.358C1229.39 316.758 1226.61 319.533 1223.21 319.533H1219.19ZM1245.03 310.91C1244 309.714 1242.56 308.952 1240.92 308.952C1237.58 308.952 1234.91 312.162 1234.91 316.133C1234.91 320.104 1237.58 323.314 1240.92 323.314C1242.56 323.314 1243.97 322.552 1245.03 321.355V323.15H1248.65V309.115H1245.03V310.91ZM1241.79 319.723C1239.97 319.723 1238.5 318.118 1238.5 316.133C1238.5 314.147 1239.97 312.57 1241.79 312.57C1243.62 312.57 1245.03 314.147 1245.03 316.133C1245.03 318.118 1243.62 319.723 1241.79 319.723ZM1258.64 319.995C1257.63 319.995 1256.92 319.587 1256.92 318.499V312.27H1260.24V309.115H1256.92V305.117H1253.31V309.115H1251.02V312.27H1253.31V318.581C1253.31 321.872 1255.05 323.314 1257.82 323.314C1258.61 323.314 1259.48 323.15 1260.24 322.933V319.723C1259.75 319.859 1259.18 319.995 1258.64 319.995ZM1271.99 310.91C1270.96 309.714 1269.52 308.952 1267.88 308.952C1264.54 308.952 1261.87 312.162 1261.87 316.133C1261.87 320.104 1264.54 323.314 1267.88 323.314C1269.52 323.314 1270.93 322.552 1271.99 321.355V323.15H1275.61V309.115H1271.99V310.91ZM1268.76 319.723C1266.93 319.723 1265.46 318.118 1265.46 316.133C1265.46 314.147 1266.93 312.57 1268.76 312.57C1270.58 312.57 1271.99 314.147 1271.99 316.133C1271.99 318.118 1270.58 319.723 1268.76 319.723ZM1286.55 316.296C1286.58 320.648 1289.87 323.314 1293.81 323.314C1297.7 323.314 1300.45 320.893 1300.45 317.411C1300.45 314.392 1298.63 312.542 1294.95 311.618L1292.72 311.046C1291.26 310.666 1290.82 309.85 1290.82 309.061C1290.82 308 1291.77 306.858 1293.46 306.858C1295.12 306.858 1296.26 308.054 1296.26 309.686H1299.82C1299.82 306.314 1297.43 303.403 1293.62 303.403C1290.14 303.403 1287.09 305.715 1287.09 309.034C1287.09 311.672 1288.97 313.739 1292.15 314.528L1294.44 315.099C1295.88 315.453 1296.72 316.323 1296.72 317.466C1296.72 318.635 1295.77 319.832 1293.81 319.832C1291.66 319.832 1290.22 318.554 1290.19 316.296H1286.55ZM1315.76 314.338C1315.6 312.134 1313.51 308.952 1309.29 308.952C1305.43 308.952 1302.33 312.162 1302.33 316.133C1302.33 320.104 1305.43 323.314 1309.29 323.314C1313.1 323.314 1315.6 319.995 1315.71 317.928H1312.12C1311.88 319.016 1310.68 319.886 1309.29 319.886C1307.28 319.886 1305.92 318.091 1305.92 316.133C1305.92 314.174 1307.17 312.379 1309.29 312.379C1310.57 312.379 1311.74 313.141 1312.09 314.338H1315.76ZM1320.37 307.565C1321.68 307.565 1322.85 306.477 1322.85 305.117C1322.85 303.784 1321.73 302.723 1320.37 302.723C1319.01 302.723 1317.95 303.784 1317.95 305.117C1317.95 306.477 1319.01 307.565 1320.37 307.565ZM1322.17 309.115H1318.55V323.15H1322.17V309.115ZM1338.34 317.139C1338.37 316.894 1338.4 316.486 1338.4 316.078C1338.4 312.162 1335.51 308.952 1331.87 308.952C1328.01 308.952 1324.93 312.08 1324.93 316.133C1324.93 320.267 1327.92 323.314 1331.98 323.314C1336.47 323.314 1337.99 319.778 1338.15 318.554H1334.53C1334.26 319.315 1333.39 320.131 1331.98 320.131C1329.88 320.131 1328.9 318.798 1328.69 317.139H1338.34ZM1331.87 312.134C1333.5 312.134 1334.43 313.222 1334.72 314.718H1328.79C1329.12 313.222 1330.15 312.134 1331.87 312.134ZM1348.47 308.952C1346.87 308.952 1345.4 309.714 1344.58 310.965V309.115H1341.07V323.15H1344.69V315.344C1344.69 313.685 1345.86 312.57 1347.36 312.57C1348.83 312.57 1349.99 313.658 1349.99 315.317V323.15H1353.61V314.882C1353.61 310.856 1351.6 308.952 1348.47 308.952ZM1362.9 319.995C1361.89 319.995 1361.18 319.587 1361.18 318.499V312.27H1364.5V309.115H1361.18V305.117H1357.56V309.115H1355.28V312.27H1357.56V318.581C1357.56 321.872 1359.3 323.314 1362.08 323.314C1362.87 323.314 1363.74 323.15 1364.5 322.933V319.723C1364.01 319.859 1363.44 319.995 1362.9 319.995ZM1369.03 307.565C1370.34 307.565 1371.51 306.477 1371.51 305.117C1371.51 303.784 1370.39 302.723 1369.03 302.723C1367.67 302.723 1366.61 303.784 1366.61 305.117C1366.61 306.477 1367.67 307.565 1369.03 307.565ZM1370.83 309.115H1367.21V323.15H1370.83V309.115ZM1373.59 318.418C1373.62 320.702 1375.52 323.314 1379.11 323.314C1382.18 323.314 1384.5 321.627 1384.55 318.744C1384.6 316.758 1383.22 315.208 1380.47 314.582L1378.57 314.147C1377.86 313.984 1377.51 313.63 1377.51 313.059C1377.51 312.352 1378.13 311.835 1379.14 311.835C1380.14 311.835 1380.88 312.542 1380.91 313.549H1384.12C1384.12 311.291 1382.18 308.952 1379.16 308.952C1376.12 308.952 1373.94 310.666 1373.94 313.114C1373.94 315.126 1375 316.622 1377.64 317.275L1379.36 317.683C1380.44 317.955 1380.99 318.282 1380.99 318.989C1380.99 319.75 1380.23 320.213 1379.27 320.213C1378.16 320.213 1377.23 319.56 1377.21 318.418H1373.59ZM1393.15 319.995C1392.14 319.995 1391.44 319.587 1391.44 318.499V312.27H1394.75V309.115H1391.44V305.117H1387.82V309.115H1385.53V312.27H1387.82V318.581C1387.82 321.872 1389.56 323.314 1392.33 323.314C1393.12 323.314 1393.99 323.15 1394.75 322.933V319.723C1394.26 319.859 1393.69 319.995 1393.15 319.995Z" fill="white"/>
</g>
</g>
<defs>
<filter id="filter0_dd_7908_116600" x="1178.8" y="107.2" width="251.599" height="292.398" filterUnits="userSpaceOnUse" color-interpolation-filters="sRGB">
<feFlood flood-opacity="0" result="BackgroundImageFix"/>
<feColorMatrix in="SourceAlpha" type="matrix" values="0 0 0 0 0 0 0 0 0 0 0 0 0 0 0 0 0 0 127 0" result="hardAlpha"/>
<feMorphology radius="3.39998" operator="erode" in="SourceAlpha" result="effect1_dropShadow_7908_116600"/>
<feOffset dy="3.39998"/>
<feGaussianBlur stdDeviation="6.79995"/>
<feColorMatrix type="matrix" values="0 0 0 0 0.0196078 0 0 0 0 0.0980392 0 0 0 0 0.176471 0 0 0 0.3 0"/>
<feBlend mode="normal" in2="BackgroundImageFix" result="effect1_dropShadow_7908_116600"/>
<feColorMatrix in="SourceAlpha" type="matrix" values="0 0 0 0 0 0 0 0 0 0 0 0 0 0 0 0 0 0 127 0" result="hardAlpha"/>
<feOffset/>
<feGaussianBlur stdDeviation="1.69999"/>
<feColorMatrix type="matrix" values="0 0 0 0 0.0196078 0 0 0 0 0.0980392 0 0 0 0 0.176471 0 0 0 0.3 0"/>
<feBlend mode="normal" in2="effect1_dropShadow_7908_116600" result="effect2_dropShadow_7908_116600"/>
<feBlend mode="normal" in="SourceGraphic" in2="effect2_dropShadow_7908_116600" result="shape"/>
</filter>
<filter id="filter1_d_7908_116600" x="1211.97" y="170.272" width="185.258" height="185.258" filterUnits="userSpaceOnUse" color-interpolation-filters="sRGB">
<feFlood flood-opacity="0" result="BackgroundImageFix"/>
<feColorMatrix in="SourceAlpha" type="matrix" values="0 0 0 0 0 0 0 0 0 0 0 0 0 0 0 0 0 0 127 0" result="hardAlpha"/>
<feOffset dy="46.9033"/>
<feGaussianBlur stdDeviation="29.3146"/>
<feComposite in2="hardAlpha" operator="out"/>
<feColorMatrix type="matrix" values="0 0 0 0 0 0 0 0 0 0.0313726 0 0 0 0 0.12549 0 0 0 1 0"/>
<feBlend mode="normal" in2="BackgroundImageFix" result="effect1_dropShadow_7908_116600"/>
<feBlend mode="normal" in="SourceGraphic" in2="effect1_dropShadow_7908_116600" result="shape"/>
</filter>
<linearGradient id="paint0_linear_7908_116600" x1="27.8076" y1="56.1188" x2="112.331" y2="412.722" gradientUnits="userSpaceOnUse">
<stop stop-color="#FCCE0D"/>
<stop offset="1" stop-color="#05192D"/>
</linearGradient>
<linearGradient id="paint1_linear_7908_116600" x1="12.0842" y1="-4.76364" x2="282.1" y2="-57.4259" gradientUnits="userSpaceOnUse">
<stop stop-color="#FCCE0D"/>
<stop offset="1" stop-color="#05192D"/>
</linearGradient>
<linearGradient id="paint2_linear_7908_116600" x1="47.101" y1="132.388" x2="362.759" y2="132.388" gradientUnits="userSpaceOnUse">
<stop stop-color="#FCCE0D"/>
<stop offset="1" stop-color="#05192D"/>
</linearGradient>
<linearGradient id="paint3_linear_7908_116600" x1="588.174" y1="-150.88" x2="511.045" y2="105.124" gradientUnits="userSpaceOnUse">
<stop stop-color="#FCCE0D"/>
<stop offset="1" stop-color="#05192D"/>
</linearGradient>
<linearGradient id="paint4_linear_7908_116600" x1="8.40076" y1="136.093" x2="-31.9229" y2="-135.252" gradientUnits="userSpaceOnUse">
<stop stop-color="#FCCE0D"/>
<stop offset="1" stop-color="#05192D"/>
</linearGradient>
<linearGradient id="paint5_linear_7908_116600" x1="293.4" y1="601.639" x2="689.093" y2="763.17" gradientUnits="userSpaceOnUse">
<stop stop-color="#FCCE0D"/>
<stop offset="1" stop-color="#05192D"/>
</linearGradient>
<linearGradient id="paint6_linear_7908_116600" x1="295.673" y1="446.596" x2="313.688" y2="268.292" gradientUnits="userSpaceOnUse">
<stop stop-color="#FCCE0D"/>
<stop offset="1" stop-color="#05192D"/>
</linearGradient>
<linearGradient id="paint7_linear_7908_116600" x1="1304.6" y1="144.596" x2="1304.6" y2="261.895" gradientUnits="userSpaceOnUse">
<stop stop-color="white" stop-opacity="0.24"/>
<stop offset="1" stop-color="#05192D"/>
</linearGradient>
<linearGradient id="paint8_linear_7908_116600" x1="1304.6" y1="168.396" x2="1304.6" y2="263.596" gradientUnits="userSpaceOnUse">
<stop stop-color="white" stop-opacity="0.24"/>
<stop offset="1" stop-color="white" stop-opacity="0"/>
</linearGradient>
<clipPath id="clip0_7908_116600">
<rect width="1500" height="500" fill="white"/>
</clipPath>
<clipPath id="clip1_7908_116600">
<rect width="153.141" height="31.9997" fill="white" transform="translate(979.859 299.57)"/>
</clipPath>
<clipPath id="clip2_7908_116600">
<rect width="14.5118" height="19.349" fill="white" transform="translate(1257 273.801)"/>
</clipPath>
</defs>
</svg>
