<svg width="1128" height="191" viewBox="0 0 1128 191" fill="none" xmlns="http://www.w3.org/2000/svg">
<rect width="1128" height="191" fill="#05192D"/>
<mask id="mask0_7908_116458" style="mask-type:alpha" maskUnits="userSpaceOnUse" x="0" y="0" width="1128" height="191">
<rect width="1128" height="191" fill="#05192D"/>
</mask>
<g mask="url(#mask0_7908_116458)">
<path d="M527.99 172.628C527.99 157.566 515.78 145.355 500.717 145.355L252 145.355L252 205.999L527.99 205.999L527.99 172.628Z" stroke="url(#paint0_linear_7908_116458)" stroke-width="1.13636"/>
<path d="M351.196 121.909C351.196 99.3156 332.88 81 310.287 81L252 81L252 166.515L351.196 166.515L351.196 121.909Z" stroke="url(#paint1_linear_7908_116458)" stroke-width="1.13636"/>
<path d="M-1.27899 171.387V171.387C16.0035 171.387 30.0137 157.376 30.0137 140.094L30.0137 -2.76403L-1.27901 -2.76403" stroke="url(#paint2_linear_7908_116458)"/>
<rect x="-4" y="-3" width="147.267" height="58.4889" stroke="url(#paint3_linear_7908_116458)"/>
<circle cx="143.789" cy="56.0099" r="40.2111" stroke="url(#paint4_linear_7908_116458)"/>
<path d="M349 16C349 33.6731 363.327 48 381 48L636 48.0001L636 -11L349 -11.0001L349 16Z" stroke="url(#paint5_linear_7908_116458)"/>
<rect width="106.088" height="111" rx="53.0442" transform="matrix(1 9.20383e-08 8.30387e-08 -1 583.38 48)" stroke="url(#paint6_linear_7908_116458)"/>
</g>
<path d="M773.203 79.9448C777.523 79.9448 780.355 76.9928 780.907 73.7288H777.595C776.995 75.6248 775.219 76.7528 773.203 76.7528C770.107 76.7528 767.659 74.2568 767.659 71.1608C767.659 68.0648 770.107 65.5688 773.203 65.5688C775.123 65.5688 777.043 66.8648 777.571 68.6648H780.883C780.355 65.7128 777.595 62.3768 773.203 62.3768C768.355 62.3768 764.467 66.3128 764.467 71.1608C764.467 76.0088 768.355 79.9448 773.203 79.9448ZM794.535 74.4968C794.559 74.2808 794.583 73.9208 794.583 73.5608C794.583 70.1048 792.039 67.2728 788.823 67.2728C785.415 67.2728 782.703 70.0328 782.703 73.6088C782.703 77.2568 785.343 79.9448 788.919 79.9448C792.879 79.9448 794.223 76.8248 794.367 75.7448H791.175C790.935 76.4168 790.167 77.1368 788.919 77.1368C787.071 77.1368 786.207 75.9608 786.015 74.4968H794.535ZM788.823 70.0808C790.263 70.0808 791.079 71.0408 791.343 72.3608H786.111C786.399 71.0408 787.311 70.0808 788.823 70.0808ZM803.497 67.2728C802.081 67.2728 800.881 67.8488 800.137 69.0728V67.4168H796.945V79.8008H800.137V73.6568C800.137 71.3768 801.312 70.3928 803.161 70.3928C803.953 70.3928 804.577 70.5128 804.865 70.5608V67.3688C804.577 67.3448 804.121 67.2728 803.497 67.2728ZM812.379 77.0168C811.491 77.0168 810.867 76.6568 810.867 75.6968V70.2008H813.795V67.4168H810.867V63.8888H807.675V67.4168H805.659V70.2008H807.675V75.7688C807.675 78.6728 809.211 79.9448 811.659 79.9448C812.355 79.9448 813.123 79.8008 813.795 79.6088V76.7768C813.363 76.8968 812.859 77.0168 812.379 77.0168ZM817.794 66.0488C818.946 66.0488 819.978 65.0888 819.978 63.8888C819.978 62.7128 818.994 61.7768 817.794 61.7768C816.594 61.7768 815.658 62.7128 815.658 63.8888C815.658 65.0888 816.594 66.0488 817.794 66.0488ZM819.378 67.4168H816.186V79.8008H819.378V67.4168ZM826.879 67.4168V66.6488C826.879 65.6408 827.551 65.3048 828.391 65.3048C828.943 65.3048 829.471 65.4488 829.615 65.4968V62.6888C829.351 62.5928 828.463 62.3768 827.383 62.3768C825.007 62.3768 823.687 64.1528 823.687 66.6248V67.4168H821.695V70.2008H823.687V79.8008H826.879V70.2008H829.807V67.4168H826.879ZM833.521 66.0488C834.673 66.0488 835.705 65.0888 835.705 63.8888C835.705 62.7128 834.721 61.7768 833.521 61.7768C832.321 61.7768 831.385 62.7128 831.385 63.8888C831.385 65.0888 832.321 66.0488 833.521 66.0488ZM835.105 67.4168H831.913V79.8008H835.105V67.4168ZM849.379 74.4968C849.403 74.2808 849.427 73.9208 849.427 73.5608C849.427 70.1048 846.883 67.2728 843.667 67.2728C840.259 67.2728 837.547 70.0328 837.547 73.6088C837.547 77.2568 840.187 79.9448 843.763 79.9448C847.723 79.9448 849.067 76.8248 849.211 75.7448H846.019C845.779 76.4168 845.011 77.1368 843.763 77.1368C841.915 77.1368 841.051 75.9608 840.859 74.4968H849.379ZM843.667 70.0808C845.107 70.0808 845.923 71.0408 846.187 72.3608H840.955C841.243 71.0408 842.155 70.0808 843.667 70.0808ZM860.303 62.5208V69.0968C859.511 68.0408 858.191 67.2728 856.727 67.2728C853.823 67.2728 851.375 69.8888 851.375 73.6088C851.375 77.3288 853.823 79.9448 856.727 79.9448C858.191 79.9448 859.463 79.4168 860.303 78.1208V79.8008H863.495V62.5208H860.303ZM857.447 76.7768C855.839 76.7768 854.543 75.3608 854.543 73.6088C854.543 71.8568 855.839 70.4408 857.447 70.4408C859.079 70.4408 860.303 71.8568 860.303 73.6088C860.303 75.3608 859.079 76.7768 857.447 76.7768ZM882.146 69.0008C881.234 67.9448 879.962 67.2728 878.522 67.2728C875.57 67.2728 873.218 70.1048 873.218 73.6088C873.218 77.1128 875.57 79.9448 878.522 79.9448C879.962 79.9448 881.21 79.2728 882.146 78.2168V79.8008H885.338V67.4168H882.146V69.0008ZM879.29 76.7768C877.682 76.7768 876.386 75.3608 876.386 73.6088C876.386 71.8568 877.682 70.4648 879.29 70.4648C880.898 70.4648 882.146 71.8568 882.146 73.6088C882.146 75.3608 880.898 76.7768 879.29 76.7768ZM887.745 75.6248C887.769 77.6408 889.449 79.9448 892.617 79.9448C895.329 79.9448 897.369 78.4568 897.417 75.9128C897.465 74.1608 896.241 72.7928 893.817 72.2408L892.137 71.8568C891.513 71.7128 891.201 71.4008 891.201 70.8968C891.201 70.2728 891.753 69.8168 892.641 69.8168C893.529 69.8168 894.177 70.4408 894.201 71.3288H897.033C897.033 69.3368 895.329 67.2728 892.665 67.2728C889.977 67.2728 888.057 68.7848 888.057 70.9448C888.057 72.7208 888.993 74.0408 891.321 74.6168L892.833 74.9768C893.793 75.2168 894.273 75.5048 894.273 76.1288C894.273 76.8008 893.601 77.2088 892.761 77.2088C891.777 77.2088 890.961 76.6328 890.937 75.6248H887.745ZM915.17 69.0008C914.258 67.9448 912.986 67.2728 911.546 67.2728C908.594 67.2728 906.242 70.1048 906.242 73.6088C906.242 77.1128 908.594 79.9448 911.546 79.9448C912.986 79.9448 914.234 79.2728 915.17 78.2168V79.8008H918.362V67.4168H915.17V69.0008ZM912.314 76.7768C910.706 76.7768 909.41 75.3608 909.41 73.6088C909.41 71.8568 910.706 70.4648 912.314 70.4648C913.922 70.4648 915.17 71.8568 915.17 73.6088C915.17 75.3608 913.922 76.7768 912.314 76.7768ZM642.402 92.5208V109.801H649.146C653.874 109.801 657.786 106.033 657.786 101.161C657.786 96.2888 653.85 92.5208 649.146 92.5208H642.402ZM645.594 106.609V95.7128H649.146C652.146 95.7128 654.594 98.1608 654.594 101.161C654.594 104.161 652.146 106.609 649.146 106.609H645.594ZM668.396 99.0008C667.484 97.9448 666.212 97.2728 664.772 97.2728C661.82 97.2728 659.468 100.105 659.468 103.609C659.468 107.113 661.82 109.945 664.772 109.945C666.212 109.945 667.46 109.273 668.396 108.217V109.801H671.588V97.4168H668.396V99.0008ZM665.54 106.777C663.932 106.777 662.636 105.361 662.636 103.609C662.636 101.857 663.932 100.465 665.54 100.465C667.148 100.465 668.396 101.857 668.396 103.609C668.396 105.361 667.148 106.777 665.54 106.777ZM680.403 107.017C679.515 107.017 678.891 106.657 678.891 105.697V100.201H681.819V97.4168H678.891V93.8888H675.699V97.4168H673.683V100.201H675.699V105.769C675.699 108.673 677.235 109.945 679.683 109.945C680.379 109.945 681.147 109.801 681.819 109.609V106.777C681.387 106.897 680.883 107.017 680.403 107.017ZM692.185 99.0008C691.273 97.9448 690.001 97.2728 688.561 97.2728C685.609 97.2728 683.257 100.105 683.257 103.609C683.257 107.113 685.609 109.945 688.561 109.945C690.001 109.945 691.249 109.273 692.185 108.217V109.801H695.377V97.4168H692.185V99.0008ZM689.329 106.777C687.721 106.777 686.425 105.361 686.425 103.609C686.425 101.857 687.721 100.465 689.329 100.465C690.937 100.465 692.185 101.857 692.185 103.609C692.185 105.361 690.937 106.777 689.329 106.777ZM705.031 103.753C705.055 107.593 707.959 109.945 711.439 109.945C714.871 109.945 717.295 107.809 717.295 104.737C717.295 102.073 715.687 100.441 712.447 99.6248L710.479 99.1208C709.183 98.7848 708.799 98.0648 708.799 97.3688C708.799 96.4328 709.639 95.4248 711.127 95.4248C712.591 95.4248 713.599 96.4808 713.599 97.9208H716.743C716.743 94.9448 714.631 92.3768 711.271 92.3768C708.199 92.3768 705.511 94.4168 705.511 97.3448C705.511 99.6728 707.167 101.497 709.975 102.193L711.991 102.697C713.263 103.009 714.007 103.777 714.007 104.785C714.007 105.817 713.167 106.873 711.439 106.873C709.543 106.873 708.271 105.745 708.247 103.753H705.031ZM730.809 102.025C730.665 100.081 728.817 97.2728 725.097 97.2728C721.689 97.2728 718.953 100.105 718.953 103.609C718.953 107.113 721.689 109.945 725.097 109.945C728.457 109.945 730.665 107.017 730.761 105.193H727.593C727.377 106.153 726.321 106.921 725.097 106.921C723.321 106.921 722.121 105.337 722.121 103.609C722.121 101.881 723.225 100.297 725.097 100.297C726.225 100.297 727.257 100.969 727.569 102.025H730.809ZM734.872 96.0488C736.024 96.0488 737.056 95.0888 737.056 93.8888C737.056 92.7128 736.072 91.7768 734.872 91.7768C733.672 91.7768 732.736 92.7128 732.736 93.8888C732.736 95.0888 733.672 96.0488 734.872 96.0488ZM736.456 97.4168H733.264V109.801H736.456V97.4168ZM750.73 104.497C750.754 104.281 750.778 103.921 750.778 103.561C750.778 100.105 748.234 97.2728 745.018 97.2728C741.61 97.2728 738.898 100.033 738.898 103.609C738.898 107.257 741.538 109.945 745.114 109.945C749.074 109.945 750.418 106.825 750.562 105.745H747.37C747.13 106.417 746.362 107.137 745.114 107.137C743.266 107.137 742.402 105.961 742.21 104.497H750.73ZM745.018 100.081C746.458 100.081 747.274 101.041 747.538 102.361H742.306C742.594 101.041 743.506 100.081 745.018 100.081ZM759.668 97.2728C758.252 97.2728 756.956 97.9448 756.236 99.0488V97.4168H753.14V109.801H756.332V102.913C756.332 101.449 757.364 100.465 758.684 100.465C759.98 100.465 761.012 101.425 761.012 102.889V109.801H764.204V102.505C764.204 98.9528 762.428 97.2728 759.668 97.2728ZM772.395 107.017C771.507 107.017 770.883 106.657 770.883 105.697V100.201H773.811V97.4168H770.883V93.8888H767.691V97.4168H765.675V100.201H767.691V105.769C767.691 108.673 769.227 109.945 771.675 109.945C772.371 109.945 773.139 109.801 773.811 109.609V106.777C773.379 106.897 772.875 107.017 772.395 107.017ZM777.81 96.0488C778.962 96.0488 779.994 95.0888 779.994 93.8888C779.994 92.7128 779.01 91.7768 777.81 91.7768C776.61 91.7768 775.674 92.7128 775.674 93.8888C775.674 95.0888 776.61 96.0488 777.81 96.0488ZM779.394 97.4168H776.202V109.801H779.394V97.4168ZM781.831 105.625C781.854 107.641 783.535 109.945 786.703 109.945C789.415 109.945 791.455 108.457 791.503 105.913C791.551 104.161 790.327 102.793 787.903 102.241L786.223 101.857C785.599 101.713 785.287 101.401 785.287 100.897C785.287 100.273 785.839 99.8168 786.727 99.8168C787.615 99.8168 788.263 100.441 788.287 101.329H791.119C791.119 99.3368 789.415 97.2728 786.751 97.2728C784.062 97.2728 782.143 98.7848 782.143 100.945C782.143 102.721 783.079 104.041 785.407 104.617L786.919 104.977C787.879 105.217 788.359 105.505 788.359 106.129C788.359 106.801 787.687 107.209 786.847 107.209C785.863 107.209 785.047 106.633 785.023 105.625H781.831ZM799.09 107.017C798.202 107.017 797.578 106.657 797.578 105.697V100.201H800.506V97.4168H797.578V93.8888H794.386V97.4168H792.37V100.201H794.386V105.769C794.386 108.673 795.922 109.945 798.37 109.945C799.066 109.945 799.834 109.801 800.506 109.609V106.777C800.074 106.897 799.57 107.017 799.09 107.017ZM825.48 109.801L818.784 92.5208H815.304L808.584 109.801H812.04L813.744 105.385H820.32L822.024 109.801H825.48ZM815.496 100.873C816.096 99.3848 816.552 98.1128 817.008 96.7208H817.032C817.536 98.1128 817.992 99.3848 818.568 100.873L819.168 102.433H814.896L815.496 100.873ZM826.479 105.625C826.503 107.641 828.183 109.945 831.351 109.945C834.063 109.945 836.103 108.457 836.151 105.913C836.199 104.161 834.975 102.793 832.551 102.241L830.871 101.857C830.247 101.713 829.935 101.401 829.935 100.897C829.935 100.273 830.487 99.8168 831.375 99.8168C832.263 99.8168 832.911 100.441 832.935 101.329H835.767C835.767 99.3368 834.063 97.2728 831.399 97.2728C828.711 97.2728 826.791 98.7848 826.791 100.945C826.791 102.721 827.727 104.041 830.055 104.617L831.567 104.977C832.527 105.217 833.007 105.505 833.007 106.129C833.007 106.801 832.335 107.209 831.495 107.209C830.511 107.209 829.695 106.633 829.671 105.625H826.479ZM837.729 105.625C837.753 107.641 839.433 109.945 842.601 109.945C845.313 109.945 847.353 108.457 847.401 105.913C847.449 104.161 846.225 102.793 843.801 102.241L842.121 101.857C841.497 101.713 841.185 101.401 841.185 100.897C841.185 100.273 841.737 99.8168 842.625 99.8168C843.513 99.8168 844.161 100.441 844.185 101.329H847.017C847.017 99.3368 845.313 97.2728 842.649 97.2728C839.961 97.2728 838.041 98.7848 838.041 100.945C838.041 102.721 838.977 104.041 841.305 104.617L842.817 104.977C843.777 105.217 844.257 105.505 844.257 106.129C844.257 106.801 843.585 107.209 842.745 107.209C841.761 107.209 840.945 106.633 840.921 105.625H837.729ZM855.339 109.945H855.363C858.747 109.945 861.483 107.089 861.483 103.609C861.483 100.129 858.747 97.2728 855.363 97.2728H855.339C851.931 97.2728 849.195 100.105 849.195 103.609C849.195 107.113 851.931 109.945 855.339 109.945ZM855.339 106.777C853.659 106.777 852.363 105.337 852.363 103.609C852.363 101.881 853.659 100.465 855.339 100.441H855.363C856.995 100.441 858.291 101.881 858.291 103.609C858.291 105.337 857.019 106.777 855.363 106.777H855.339ZM875.278 102.025C875.134 100.081 873.286 97.2728 869.566 97.2728C866.158 97.2728 863.422 100.105 863.422 103.609C863.422 107.113 866.158 109.945 869.566 109.945C872.926 109.945 875.134 107.017 875.23 105.193H872.062C871.846 106.153 870.79 106.921 869.566 106.921C867.79 106.921 866.59 105.337 866.59 103.609C866.59 101.881 867.694 100.297 869.566 100.297C870.694 100.297 871.726 100.969 872.038 102.025H875.278ZM879.341 96.0488C880.493 96.0488 881.525 95.0888 881.525 93.8888C881.525 92.7128 880.541 91.7768 879.341 91.7768C878.141 91.7768 877.205 92.7128 877.205 93.8888C877.205 95.0888 878.141 96.0488 879.341 96.0488ZM880.925 97.4168H877.733V109.801H880.925V97.4168ZM892.295 99.0008C891.383 97.9448 890.111 97.2728 888.671 97.2728C885.719 97.2728 883.367 100.105 883.367 103.609C883.367 107.113 885.719 109.945 888.671 109.945C890.111 109.945 891.359 109.273 892.295 108.217V109.801H895.487V97.4168H892.295V99.0008ZM889.439 106.777C887.831 106.777 886.535 105.361 886.535 103.609C886.535 101.857 887.831 100.465 889.439 100.465C891.047 100.465 892.295 101.857 892.295 103.609C892.295 105.361 891.047 106.777 889.439 106.777ZM904.301 107.017C903.413 107.017 902.789 106.657 902.789 105.697V100.201H905.717V97.4168H902.789V93.8888H899.597V97.4168H897.581V100.201H899.597V105.769C899.597 108.673 901.133 109.945 903.581 109.945C904.277 109.945 905.045 109.801 905.717 109.609V106.777C905.285 106.897 904.781 107.017 904.301 107.017ZM918.988 104.497C919.012 104.281 919.036 103.921 919.036 103.561C919.036 100.105 916.492 97.2728 913.276 97.2728C909.868 97.2728 907.156 100.033 907.156 103.609C907.156 107.257 909.796 109.945 913.372 109.945C917.332 109.945 918.676 106.825 918.82 105.745H915.628C915.388 106.417 914.62 107.137 913.372 107.137C911.524 107.137 910.66 105.961 910.468 104.497H918.988ZM913.276 100.081C914.716 100.081 915.532 101.041 915.796 102.361H910.564C910.852 101.041 911.764 100.081 913.276 100.081Z" fill="white"/>
<path d="M831.323 128.099C831.917 127.769 832.345 127.132 832.345 126.406C832.345 125.241 831.301 124.285 830.081 124.285H826.926V132.199H830.4C831.587 132.199 832.653 131.243 832.653 130.078C832.664 129.242 832.18 128.462 831.323 128.11V128.099ZM830.081 125.428C830.707 125.428 831.202 125.923 831.202 126.538C831.202 127.099 830.74 127.593 830.125 127.604H828.069V125.428H830.081ZM828.069 131.056V128.759H830.4C831.015 128.759 831.51 129.297 831.51 129.913C831.51 130.539 831.015 131.056 830.4 131.056H828.069ZM837.531 126.527V129.825C837.531 130.528 836.959 131.133 836.234 131.133C835.519 131.133 834.947 130.539 834.947 129.825V126.527H833.804V129.957C833.804 131.243 834.574 132.265 835.827 132.265C836.53 132.265 837.146 131.891 837.531 131.43V132.133C837.531 133.156 836.959 133.826 836.047 133.826C835.178 133.826 834.695 133.375 834.607 132.672H833.408C833.474 133.804 834.376 134.903 836.025 134.903C837.564 134.903 838.674 133.749 838.674 132.089V126.527H837.531Z" fill="white"/>
<g clip-path="url(#clip0_7908_116458)">
<path fill-rule="evenodd" clip-rule="evenodd" d="M864.47 131.782C863.131 131.782 862.045 130.693 862.045 129.348C862.045 128.004 863.131 126.914 864.47 126.914C865.808 126.914 866.894 128.004 866.894 129.348C866.894 129.994 866.638 130.613 866.184 131.07C865.729 131.526 865.112 131.782 864.47 131.782ZM866.898 122.967V126.751C865.491 125.424 863.285 125.47 861.934 126.855C860.583 128.24 860.583 130.456 861.934 131.841C863.285 133.226 865.491 133.272 866.898 131.945V132.729H868.018V122.967H866.898ZM898.094 131.782C896.756 131.782 895.67 130.693 895.67 129.348C895.67 128.004 896.756 126.914 898.094 126.914C899.433 126.914 900.519 128.004 900.519 129.348C900.519 129.994 900.263 130.613 899.809 131.07C899.354 131.526 898.737 131.782 898.094 131.782ZM901.642 129.348V125.823H900.522V126.751C899.115 125.424 896.909 125.47 895.558 126.855C894.207 128.24 894.207 130.456 895.558 131.841C896.909 133.226 899.115 133.272 900.522 131.945V132.729H901.642V129.348H901.642ZM910.576 126.085C910.677 125.92 910.856 125.819 911.048 125.819H911.264C911.722 125.819 912.093 126.192 912.093 126.651V132.729H910.95V127.58C910.422 128.435 908.534 131.534 907.968 132.464C907.868 132.629 907.689 132.729 907.497 132.729H907.263C906.958 132.729 906.711 132.481 906.711 132.174V127.567C906.093 128.569 904.196 131.681 903.599 132.677L903.567 132.729H902.471V125.821H903.614V125.835L903.588 130.601L906.329 126.086C906.429 125.921 906.608 125.82 906.801 125.82H907.018C907.475 125.82 907.846 126.192 907.847 126.651C907.847 127.921 907.853 130.234 907.853 130.57L910.576 126.085ZM894.433 131.446C893.521 132.705 891.9 133.223 890.431 132.725C888.962 132.227 887.985 130.828 888.02 129.272C888.054 127.715 889.091 126.362 890.58 125.929C892.07 125.497 893.666 126.086 894.522 127.384L893.448 127.945C892.869 127.125 891.836 126.762 890.874 127.041C889.912 127.32 889.231 128.179 889.175 129.183C889.12 130.187 889.704 131.117 890.629 131.5C891.555 131.883 892.621 131.637 893.287 130.886L894.433 131.446ZM916.376 131.788C915.094 131.787 914.034 130.785 913.958 129.5V129.209C914.037 127.886 915.155 126.869 916.474 126.922C917.793 126.975 918.828 128.078 918.801 129.403C918.775 130.729 917.697 131.789 916.377 131.789L916.376 131.788ZM916.377 125.792C915.479 125.791 914.613 126.133 913.958 126.75V125.823H912.837V135.549H913.958V131.958C915.12 133.048 916.863 133.227 918.222 132.397C919.58 131.566 920.223 129.929 919.793 128.392C919.364 126.854 917.967 125.791 916.377 125.792V125.792ZM878.398 126.901V131.149C878.398 131.401 878.601 131.605 878.852 131.605H880.156V132.729H878.853C877.984 132.728 877.28 132.021 877.279 131.149L877.275 126.901H876.067V125.807H877.275V123.918H878.397V125.811H880.386V126.901H878.398ZM883.828 131.782C882.49 131.782 881.404 130.692 881.404 129.348C881.404 128.003 882.49 126.913 883.828 126.913C885.167 126.913 886.253 128.003 886.253 129.348C886.253 129.993 885.997 130.612 885.543 131.069C885.088 131.525 884.471 131.782 883.828 131.782ZM886.256 125.822V126.751C884.849 125.424 882.643 125.47 881.292 126.855C879.941 128.24 879.941 130.456 881.292 131.841C882.643 133.226 884.849 133.272 886.256 131.945V132.729H887.377V125.821L886.256 125.822ZM872.015 131.782C870.676 131.782 869.591 130.693 869.591 129.348C869.591 128.004 870.676 126.914 872.015 126.914C873.354 126.914 874.439 128.004 874.439 129.348C874.44 129.994 874.184 130.613 873.73 131.07C873.275 131.526 872.658 131.783 872.015 131.782ZM874.443 125.823V126.751C873.036 125.424 870.83 125.47 869.479 126.855C868.128 128.24 868.128 130.456 869.479 131.841C870.83 133.226 873.036 133.272 874.443 131.945V132.729H875.563V125.821L874.443 125.823Z" fill="white"/>
<path fill-rule="evenodd" clip-rule="evenodd" d="M851.332 123.838V127.4L847.568 129.556V121.669L851.332 123.838ZM852.55 131.322V128.112L857.59 125.223L856.364 124.518L852.55 126.703V123.482C852.549 123.263 852.432 123.061 852.244 122.951L847.652 120.308C847.64 120.301 847.628 120.294 847.615 120.288C847.343 120.155 847.021 120.172 846.764 120.334C846.506 120.496 846.351 120.779 846.351 121.084V130.14C846.35 130.445 846.506 130.728 846.763 130.891C847.02 131.053 847.343 131.07 847.616 130.937L847.651 130.919L851.329 128.811V131.683C851.33 131.903 851.447 132.105 851.636 132.215L856.356 134.904L857.583 134.198L852.55 131.322Z" fill="#03EF62"/>
</g>
<g filter="url(#filter0_dd_7908_116458)">
<path d="M953.65 86.1C953.65 56.0281 978.028 31.65 1008.1 31.65C1038.17 31.65 1062.55 56.0281 1062.55 86.1V155.4C1062.55 158.134 1060.33 160.35 1057.6 160.35H958.6C955.866 160.35 953.65 158.134 953.65 155.4V86.1Z" fill="#05192D" stroke="#FCCE0D" stroke-width="3.3"/>
<circle cx="1008.1" cy="84.4496" r="39.6" stroke="url(#paint7_linear_7908_116458)" stroke-width="1.65"/>
<circle cx="1008.1" cy="79.5004" r="23.1" fill="url(#paint8_linear_7908_116458)"/>
<g filter="url(#filter1_d_7908_116458)">
<circle cx="1008.1" cy="79.5" r="16.5" fill="white"/>
</g>
<path fill-rule="evenodd" clip-rule="evenodd" d="M1008.1 70.6992C1011.44 70.6992 1014.15 73.4079 1014.15 76.7492C1014.15 78.628 1013.29 80.3067 1011.95 81.4164V87.3598C1011.95 88.1234 1011.2 88.6414 1010.5 88.4023L1010.38 88.3553L1008.1 87.2811L1005.82 88.355C1005.13 88.6805 1004.34 88.2198 1004.26 87.4848L1004.25 87.3598V81.4163C1002.91 80.3066 1002.05 78.6279 1002.05 76.7492C1002.05 73.4079 1004.76 70.6992 1008.1 70.6992ZM1006.45 82.5715V85.6245L1007.63 85.071C1007.88 84.9513 1008.17 84.9341 1008.44 85.0194L1008.56 85.0706L1009.75 85.6267V82.5715C1009.23 82.7198 1008.67 82.7992 1008.1 82.7992C1007.53 82.7992 1006.97 82.7198 1006.45 82.5715ZM1008.1 72.899C1005.97 72.899 1004.25 74.6227 1004.25 76.749C1004.25 78.8753 1005.97 80.599 1008.1 80.599C1010.23 80.599 1011.95 78.8753 1011.95 76.749C1011.95 74.6227 1010.23 72.899 1008.1 72.899Z" fill="#05192D"/>
<path d="M952 142.201H1064.2V155.401C1064.2 159.046 1061.25 162.001 1057.6 162.001H958.6C954.955 162.001 952 159.046 952 155.401V142.201Z" fill="#FCCE0D"/>
<path d="M982.262 154.852L979.5 147.724H978.065L975.293 154.852H976.718L977.421 153.03H980.134L980.837 154.852H982.262ZM978.144 151.169C978.392 150.555 978.58 150.03 978.768 149.456H978.778C978.986 150.03 979.174 150.555 979.411 151.169L979.659 151.812H977.897L978.144 151.169ZM983.987 152.357C983.997 153.941 985.195 154.911 986.63 154.911C988.046 154.911 989.046 154.03 989.046 152.763C989.046 151.664 988.383 150.991 987.046 150.654L986.234 150.446C985.7 150.307 985.541 150.01 985.541 149.723C985.541 149.337 985.888 148.921 986.502 148.921C987.106 148.921 987.521 149.357 987.521 149.951H988.818C988.818 148.723 987.947 147.664 986.561 147.664C985.294 147.664 984.185 148.506 984.185 149.713C984.185 150.674 984.868 151.426 986.026 151.713L986.858 151.921C987.383 152.05 987.69 152.367 987.69 152.782C987.69 153.208 987.343 153.644 986.63 153.644C985.848 153.644 985.324 153.178 985.314 152.357H983.987ZM991.05 152.357C991.06 153.941 992.258 154.911 993.693 154.911C995.109 154.911 996.109 154.03 996.109 152.763C996.109 151.664 995.445 150.991 994.109 150.654L993.297 150.446C992.762 150.307 992.604 150.01 992.604 149.723C992.604 149.337 992.951 148.921 993.564 148.921C994.168 148.921 994.584 149.357 994.584 149.951H995.881C995.881 148.723 995.01 147.664 993.624 147.664C992.357 147.664 991.248 148.506 991.248 149.713C991.248 150.674 991.931 151.426 993.089 151.713L993.921 151.921C994.445 152.05 994.752 152.367 994.752 152.782C994.752 153.208 994.406 153.644 993.693 153.644C992.911 153.644 992.386 153.178 992.376 152.357H991.05ZM1001.7 154.911C1003.7 154.911 1005.31 153.287 1005.31 151.288C1005.31 149.288 1003.7 147.664 1001.7 147.664C999.697 147.664 998.093 149.288 998.093 151.288C998.093 153.287 999.697 154.911 1001.7 154.911ZM1001.7 153.594C1000.42 153.594 999.409 152.565 999.409 151.288C999.409 150.01 1000.42 148.981 1001.7 148.981C1002.97 148.981 1003.99 150.01 1003.99 151.288C1003.99 152.565 1002.97 153.594 1001.7 153.594ZM1011 154.911C1012.78 154.911 1013.95 153.693 1014.18 152.347H1012.81C1012.57 153.129 1011.83 153.594 1011 153.594C1009.72 153.594 1008.72 152.565 1008.72 151.288C1008.72 150.01 1009.72 148.981 1011 148.981C1011.79 148.981 1012.59 149.515 1012.8 150.258H1014.17C1013.95 149.04 1012.81 147.664 1011 147.664C1009 147.664 1007.4 149.288 1007.4 151.288C1007.4 153.287 1009 154.911 1011 154.911ZM1016.58 147.724V154.852H1017.89V147.724H1016.58ZM1027.03 154.852L1024.26 147.724H1022.83L1020.06 154.852H1021.48L1022.19 153.03H1024.9L1025.6 154.852H1027.03ZM1022.91 151.169C1023.16 150.555 1023.34 150.03 1023.53 149.456H1023.54C1023.75 150.03 1023.94 150.555 1024.18 151.169L1024.42 151.812H1022.66L1022.91 151.169ZM1033.39 147.724H1027.79V149.04H1029.93V154.852H1031.24V149.04H1033.39V147.724ZM1035.56 147.724V154.852H1040.54V153.535H1036.88V151.941H1040.16V150.634H1036.88V149.04H1040.54V147.724H1035.56Z" fill="#05192D"/>
<g clip-path="url(#clip1_7908_116458)">
<path fill-rule="evenodd" clip-rule="evenodd" d="M988.052 109.835V112.07L985.745 113.423V108.473L988.052 109.835ZM988.798 114.531V112.517L991.886 110.704L991.135 110.261L988.798 111.633V109.611C988.797 109.473 988.726 109.347 988.61 109.278L985.797 107.619C985.79 107.614 985.782 107.611 985.775 107.607C985.607 107.523 985.41 107.534 985.253 107.635C985.095 107.737 985 107.915 985 108.106V113.789C984.999 113.981 985.095 114.159 985.252 114.261C985.41 114.363 985.608 114.374 985.775 114.29L985.796 114.279L988.05 112.955V114.758C988.05 114.896 988.122 115.023 988.238 115.092L991.13 116.779L991.881 116.337L988.798 114.531Z" fill="#03EF62"/>
</g>
<path d="M998.216 115.589C999.724 115.589 1000.79 114.62 1001.09 113.373H1000.1C999.813 114.171 999.069 114.656 998.216 114.656C996.915 114.656 995.91 113.606 995.91 112.305C995.91 111.004 996.915 109.954 998.216 109.954C998.997 109.954 999.831 110.484 1000.07 111.228H1001.06C1000.79 110.062 999.688 109.021 998.216 109.021C996.404 109.021 994.977 110.492 994.977 112.305C994.977 114.118 996.404 115.589 998.216 115.589Z" fill="white"/>
<path d="M1006.16 113.507C1006.17 113.409 1006.18 113.292 1006.18 113.166C1006.18 111.901 1005.27 110.851 1004.03 110.851C1002.75 110.851 1001.81 111.901 1001.81 113.22C1001.81 114.566 1002.74 115.589 1004.07 115.589C1005.5 115.589 1006.03 114.494 1006.1 114.055H1005.14C1005.05 114.324 1004.72 114.746 1004.07 114.746C1003.28 114.746 1002.85 114.198 1002.77 113.507H1006.16ZM1004.03 111.695C1004.72 111.695 1005.13 112.188 1005.23 112.807H1002.8C1002.92 112.179 1003.34 111.695 1004.03 111.695Z" fill="white"/>
<path d="M1009.33 110.851C1008.77 110.851 1008.35 111.112 1008.11 111.515V110.905H1007.17V115.535H1008.11V113.05C1008.11 112.161 1008.6 111.767 1009.3 111.767C1009.5 111.767 1009.68 111.794 1009.78 111.811V110.878C1009.68 110.869 1009.55 110.851 1009.33 110.851Z" fill="white"/>
<path d="M1012.41 114.719C1012.07 114.719 1011.85 114.566 1011.85 114.18V111.722H1013.03V110.905H1011.85V109.595H1010.91V110.905H1010.12V111.722H1010.91V114.198C1010.91 115.14 1011.42 115.589 1012.24 115.589C1012.56 115.589 1012.87 115.481 1013.03 115.419V114.548C1012.91 114.602 1012.65 114.719 1012.41 114.719Z" fill="white"/>
<path d="M1014.46 110.25C1014.83 110.25 1015.15 109.954 1015.15 109.577C1015.15 109.2 1014.84 108.904 1014.46 108.904C1014.08 108.904 1013.78 109.2 1013.78 109.577C1013.78 109.954 1014.08 110.25 1014.46 110.25ZM1014.91 110.905H1013.98V115.535H1014.91V110.905Z" fill="white"/>
<path d="M1017.55 110.905V110.475C1017.55 110.08 1017.82 109.9 1018.15 109.9C1018.38 109.9 1018.58 109.954 1018.71 110.008V109.147C1018.56 109.093 1018.25 109.021 1017.9 109.021C1017.11 109.021 1016.62 109.613 1016.62 110.457V110.905H1015.87V111.722H1016.62V115.535H1017.55V111.722H1018.74V110.905H1017.55Z" fill="white"/>
<path d="M1020.08 110.25C1020.46 110.25 1020.77 109.954 1020.77 109.577C1020.77 109.2 1020.47 108.904 1020.08 108.904C1019.7 108.904 1019.41 109.2 1019.41 109.577C1019.41 109.954 1019.7 110.25 1020.08 110.25ZM1020.54 110.905H1019.61V115.535H1020.54V110.905Z" fill="white"/>
<path d="M1025.95 113.507C1025.96 113.409 1025.97 113.292 1025.97 113.166C1025.97 111.901 1025.05 110.851 1023.81 110.851C1022.54 110.851 1021.6 111.901 1021.6 113.22C1021.6 114.566 1022.52 115.589 1023.86 115.589C1025.29 115.589 1025.81 114.494 1025.89 114.055H1024.93C1024.84 114.324 1024.5 114.746 1023.86 114.746C1023.07 114.746 1022.64 114.198 1022.56 113.507H1025.95ZM1023.81 111.695C1024.5 111.695 1024.92 112.188 1025.02 112.807H1022.58C1022.7 112.179 1023.12 111.695 1023.81 111.695Z" fill="white"/>
<path d="M1030.27 109.075V111.614C1029.97 111.174 1029.43 110.851 1028.8 110.851C1027.72 110.851 1026.78 111.856 1026.78 113.22C1026.78 114.584 1027.72 115.589 1028.8 115.589C1029.43 115.589 1029.93 115.347 1030.27 114.826V115.535H1031.2V109.075H1030.27ZM1029.02 114.683C1028.26 114.683 1027.71 114.028 1027.71 113.22C1027.71 112.413 1028.26 111.767 1029.02 111.767C1029.78 111.767 1030.27 112.413 1030.27 113.22C1030.27 114.028 1029.78 114.683 1029.02 114.683Z" fill="white"/>
<path d="M964.895 122.437V131.941H968.604C971.204 131.941 973.356 129.869 973.356 127.189C973.356 124.51 971.191 122.437 968.604 122.437H964.895ZM966.65 130.186V124.193H968.604C970.254 124.193 971.6 125.539 971.6 127.189C971.6 128.839 970.254 130.186 968.604 130.186H966.65ZM979.192 126.001C978.69 125.421 977.99 125.051 977.198 125.051C975.575 125.051 974.281 126.609 974.281 128.536C974.281 130.463 975.575 132.021 977.198 132.021C977.99 132.021 978.677 131.651 979.192 131.07V131.941H980.947V125.13H979.192V126.001ZM977.621 130.278C976.736 130.278 976.024 129.499 976.024 128.536C976.024 127.572 976.736 126.807 977.621 126.807C978.505 126.807 979.192 127.572 979.192 128.536C979.192 129.499 978.505 130.278 977.621 130.278ZM985.795 130.41C985.307 130.41 984.963 130.212 984.963 129.684V126.661H986.574V125.13H984.963V123.19H983.208V125.13H982.099V126.661H983.208V129.724C983.208 131.321 984.053 132.021 985.399 132.021C985.782 132.021 986.204 131.941 986.574 131.836V130.278C986.336 130.344 986.059 130.41 985.795 130.41ZM992.276 126.001C991.774 125.421 991.074 125.051 990.282 125.051C988.659 125.051 987.365 126.609 987.365 128.536C987.365 130.463 988.659 132.021 990.282 132.021C991.074 132.021 991.761 131.651 992.276 131.07V131.941H994.031V125.13H992.276V126.001ZM990.705 130.278C989.82 130.278 989.108 129.499 989.108 128.536C989.108 127.572 989.82 126.807 990.705 126.807C991.589 126.807 992.276 127.572 992.276 128.536C992.276 129.499 991.589 130.278 990.705 130.278ZM999.341 128.615C999.354 130.727 1000.95 132.021 1002.87 132.021C1004.75 132.021 1006.09 130.846 1006.09 129.156C1006.09 127.691 1005.2 126.793 1003.42 126.345L1002.34 126.067C1001.62 125.883 1001.41 125.487 1001.41 125.104C1001.41 124.589 1001.88 124.035 1002.69 124.035C1003.5 124.035 1004.05 124.615 1004.05 125.407H1005.78C1005.78 123.771 1004.62 122.358 1002.77 122.358C1001.08 122.358 999.605 123.48 999.605 125.091C999.605 126.371 1000.52 127.374 1002.06 127.757L1003.17 128.034C1003.87 128.206 1004.28 128.628 1004.28 129.183C1004.28 129.75 1003.82 130.331 1002.87 130.331C1001.82 130.331 1001.12 129.711 1001.11 128.615H999.341ZM1013.52 127.665C1013.44 126.595 1012.42 125.051 1010.38 125.051C1008.5 125.051 1007 126.609 1007 128.536C1007 130.463 1008.5 132.021 1010.38 132.021C1012.22 132.021 1013.44 130.41 1013.49 129.407H1011.75C1011.63 129.935 1011.05 130.357 1010.38 130.357C1009.4 130.357 1008.74 129.486 1008.74 128.536C1008.74 127.585 1009.35 126.714 1010.38 126.714C1011 126.714 1011.56 127.084 1011.74 127.665H1013.52ZM1015.75 124.378C1016.39 124.378 1016.95 123.85 1016.95 123.19C1016.95 122.543 1016.41 122.028 1015.75 122.028C1015.09 122.028 1014.58 122.543 1014.58 123.19C1014.58 123.85 1015.09 124.378 1015.75 124.378ZM1016.62 125.13H1014.87V131.941H1016.62V125.13ZM1024.48 129.024C1024.49 128.905 1024.5 128.707 1024.5 128.509C1024.5 126.609 1023.1 125.051 1021.33 125.051C1019.46 125.051 1017.97 126.569 1017.97 128.536C1017.97 130.542 1019.42 132.021 1021.39 132.021C1023.56 132.021 1024.3 130.305 1024.38 129.711H1022.63C1022.5 130.08 1022.07 130.476 1021.39 130.476C1020.37 130.476 1019.89 129.829 1019.79 129.024H1024.48ZM1021.33 126.595C1022.13 126.595 1022.57 127.123 1022.72 127.849H1019.84C1020 127.123 1020.5 126.595 1021.33 126.595ZM1029.39 125.051C1028.61 125.051 1027.9 125.421 1027.5 126.028V125.13H1025.8V131.941H1027.56V128.153C1027.56 127.348 1028.12 126.807 1028.85 126.807C1029.56 126.807 1030.13 127.335 1030.13 128.14V131.941H1031.89V127.929C1031.89 125.975 1030.91 125.051 1029.39 125.051ZM1036.39 130.41C1035.9 130.41 1035.56 130.212 1035.56 129.684V126.661H1037.17V125.13H1035.56V123.19H1033.8V125.13H1032.69V126.661H1033.8V129.724C1033.8 131.321 1034.65 132.021 1035.99 132.021C1036.38 132.021 1036.8 131.941 1037.17 131.836V130.278C1036.93 130.344 1036.65 130.41 1036.39 130.41ZM1039.37 124.378C1040 124.378 1040.57 123.85 1040.57 123.19C1040.57 122.543 1040.03 122.028 1039.37 122.028C1038.71 122.028 1038.19 122.543 1038.19 123.19C1038.19 123.85 1038.71 124.378 1039.37 124.378ZM1040.24 125.13H1038.48V131.941H1040.24V125.13ZM1041.58 129.645C1041.59 130.753 1042.52 132.021 1044.26 132.021C1045.75 132.021 1046.87 131.202 1046.9 129.803C1046.93 128.839 1046.25 128.087 1044.92 127.783L1044 127.572C1043.65 127.493 1043.48 127.321 1043.48 127.044C1043.48 126.701 1043.78 126.45 1044.27 126.45C1044.76 126.45 1045.12 126.793 1045.13 127.282H1046.69C1046.69 126.186 1045.75 125.051 1044.29 125.051C1042.81 125.051 1041.75 125.883 1041.75 127.071C1041.75 128.047 1042.27 128.773 1043.55 129.09L1044.38 129.288C1044.91 129.42 1045.17 129.579 1045.17 129.922C1045.17 130.291 1044.8 130.516 1044.34 130.516C1043.8 130.516 1043.35 130.199 1043.34 129.645H1041.58ZM1051.07 130.41C1050.58 130.41 1050.24 130.212 1050.24 129.684V126.661H1051.85V125.13H1050.24V123.19H1048.49V125.13H1047.38V126.661H1048.49V129.724C1048.49 131.321 1049.33 132.021 1050.68 132.021C1051.06 132.021 1051.48 131.941 1051.85 131.836V130.278C1051.61 130.344 1051.34 130.41 1051.07 130.41Z" fill="white"/>
</g>
<defs>
<filter id="filter0_dd_7908_116458" x="947.05" y="26.7" width="122.1" height="141.902" filterUnits="userSpaceOnUse" color-interpolation-filters="sRGB">
<feFlood flood-opacity="0" result="BackgroundImageFix"/>
<feColorMatrix in="SourceAlpha" type="matrix" values="0 0 0 0 0 0 0 0 0 0 0 0 0 0 0 0 0 0 127 0" result="hardAlpha"/>
<feMorphology radius="1.65" operator="erode" in="SourceAlpha" result="effect1_dropShadow_7908_116458"/>
<feOffset dy="1.65"/>
<feGaussianBlur stdDeviation="3.3"/>
<feColorMatrix type="matrix" values="0 0 0 0 0.0196078 0 0 0 0 0.0980392 0 0 0 0 0.176471 0 0 0 0.3 0"/>
<feBlend mode="normal" in2="BackgroundImageFix" result="effect1_dropShadow_7908_116458"/>
<feColorMatrix in="SourceAlpha" type="matrix" values="0 0 0 0 0 0 0 0 0 0 0 0 0 0 0 0 0 0 127 0" result="hardAlpha"/>
<feOffset/>
<feGaussianBlur stdDeviation="0.825"/>
<feColorMatrix type="matrix" values="0 0 0 0 0.0196078 0 0 0 0 0.0980392 0 0 0 0 0.176471 0 0 0 0.3 0"/>
<feBlend mode="normal" in2="effect1_dropShadow_7908_116458" result="effect2_dropShadow_7908_116458"/>
<feBlend mode="normal" in="SourceGraphic" in2="effect2_dropShadow_7908_116458" result="shape"/>
</filter>
<filter id="filter1_d_7908_116458" x="963.147" y="57.3095" width="89.9051" height="89.9051" filterUnits="userSpaceOnUse" color-interpolation-filters="sRGB">
<feFlood flood-opacity="0" result="BackgroundImageFix"/>
<feColorMatrix in="SourceAlpha" type="matrix" values="0 0 0 0 0 0 0 0 0 0 0 0 0 0 0 0 0 0 127 0" result="hardAlpha"/>
<feOffset dy="22.762"/>
<feGaussianBlur stdDeviation="14.2263"/>
<feComposite in2="hardAlpha" operator="out"/>
<feColorMatrix type="matrix" values="0 0 0 0 0 0 0 0 0 0.0313726 0 0 0 0 0.12549 0 0 0 1 0"/>
<feBlend mode="normal" in2="BackgroundImageFix" result="effect1_dropShadow_7908_116458"/>
<feBlend mode="normal" in="SourceGraphic" in2="effect1_dropShadow_7908_116458" result="shape"/>
</filter>
<linearGradient id="paint0_linear_7908_116458" x1="307.545" y1="240.086" x2="505.8" y2="321.019" gradientUnits="userSpaceOnUse">
<stop stop-color="#FCCE0D"/>
<stop offset="1" stop-color="#05192D"/>
</linearGradient>
<linearGradient id="paint1_linear_7908_116458" x1="308.684" y1="162.403" x2="317.709" y2="73.067" gradientUnits="userSpaceOnUse">
<stop stop-color="#FCCE0D"/>
<stop offset="1" stop-color="#05192D"/>
</linearGradient>
<linearGradient id="paint2_linear_7908_116458" x1="13.6873" y1="28.5287" x2="57.4554" y2="213.187" gradientUnits="userSpaceOnUse">
<stop stop-color="#FCCE0D"/>
<stop offset="1" stop-color="#05192D"/>
</linearGradient>
<linearGradient id="paint3_linear_7908_116458" x1="5.54523" y1="-2.99998" x2="145.366" y2="-30.2698" gradientUnits="userSpaceOnUse">
<stop stop-color="#FCCE0D"/>
<stop offset="1" stop-color="#05192D"/>
</linearGradient>
<linearGradient id="paint4_linear_7908_116458" x1="23.6778" y1="68.021" x2="187.133" y2="68.021" gradientUnits="userSpaceOnUse">
<stop stop-color="#FCCE0D"/>
<stop offset="1" stop-color="#05192D"/>
</linearGradient>
<linearGradient id="paint5_linear_7908_116458" x1="393.661" y1="-96" x2="355.412" y2="57.6174" gradientUnits="userSpaceOnUse">
<stop stop-color="#FCCE0D"/>
<stop offset="1" stop-color="#05192D"/>
</linearGradient>
<linearGradient id="paint6_linear_7908_116458" x1="4.9115" y1="79.5664" x2="-18.6637" y2="-79.0752" gradientUnits="userSpaceOnUse">
<stop stop-color="#FCCE0D"/>
<stop offset="1" stop-color="#05192D"/>
</linearGradient>
<linearGradient id="paint7_linear_7908_116458" x1="1008.1" y1="44.8496" x2="1008.1" y2="101.775" gradientUnits="userSpaceOnUse">
<stop stop-color="white" stop-opacity="0.24"/>
<stop offset="1" stop-color="#05192D"/>
</linearGradient>
<linearGradient id="paint8_linear_7908_116458" x1="1008.1" y1="56.4004" x2="1008.1" y2="102.6" gradientUnits="userSpaceOnUse">
<stop stop-color="white" stop-opacity="0.24"/>
<stop offset="1" stop-color="white" stop-opacity="0"/>
</linearGradient>
<clipPath id="clip0_7908_116458">
<rect width="73.649" height="15.3893" fill="white" transform="translate(846.351 120.199)"/>
</clipPath>
<clipPath id="clip1_7908_116458">
<rect width="7.04252" height="9.39003" fill="white" transform="translate(985 107.551)"/>
</clipPath>
</defs>
</svg>
